<svg width="6327" height="1132" viewBox="0 0 6327 1132" fill="none" xmlns="http://www.w3.org/2000/svg">
<g clip-path="url(#clip0_7077_15533)">
<rect width="6326.62" height="1132" fill="#FAF6EC"/>
<g clip-path="url(#clip1_7077_15533)">
<rect width="6326.62" height="3238" fill="#517E51"/>
<g clip-path="url(#clip2_7077_15533)">
<g clip-path="url(#clip3_7077_15533)">
<mask id="mask0_7077_15533" style="mask-type:alpha" maskUnits="userSpaceOnUse" x="-792" y="-79" width="2638" height="2477">
<path d="M1845.07 -78.2266H-791.438V2397.88H1845.07V-78.2266Z" fill="#D3DE6E"/>
</mask>
<g mask="url(#mask0_7077_15533)">
<path d="M2055.6 -78.207H-1032.02V2397.9H2055.6V-78.207Z" fill="#164A31"/>
<mask id="mask1_7077_15533" style="mask-type:luminance" maskUnits="userSpaceOnUse" x="607" y="-122" width="570" height="514">
<path d="M607.77 144.386L1014.52 391.672L1176.21 125.704L769.469 -121.582L607.77 144.386Z" fill="white"/>
</mask>
<g mask="url(#mask1_7077_15533)">
<path d="M759.638 48.9785C797.409 71.945 809.467 121.381 786.488 159.168C763.523 196.953 714.095 209.029 676.296 186.057C638.511 163.083 626.48 113.653 649.445 75.8678C672.425 38.0821 721.852 26.0122 759.638 48.9785ZM685.233 171.369C714.914 189.419 753.768 179.943 771.821 150.246C789.874 120.55 780.41 81.7042 750.715 63.6553C721.02 45.6055 682.18 55.0811 664.127 84.7778C646.074 114.475 655.537 153.32 685.233 171.369Z" fill="#1D6543"/>
<path d="M1029.34 212.948C1067.13 235.92 1079.17 285.356 1056.19 323.154C1033.23 360.95 983.798 372.998 945.999 350.025C908.214 327.053 896.183 277.623 919.149 239.836C942.128 202.051 991.555 189.982 1029.34 212.948ZM954.936 335.338C984.617 353.387 1023.47 343.911 1041.52 314.216C1059.58 284.519 1050.11 245.674 1020.42 227.623C990.723 209.574 951.883 219.049 933.83 248.746C915.777 278.443 925.24 317.299 954.922 335.348L954.936 335.338Z" fill="#1D6543"/>
<path d="M973.209 2.29148C1087.01 71.4774 1122.55 213.811 1054.15 326.321C1051.69 330.375 1046.41 331.663 1042.35 329.199C1038.3 326.734 1037.01 321.456 1039.48 317.4C1102.88 213.119 1069.86 81.152 964.3 16.9746C858.729 -47.2034 723.671 -13.1312 660.27 91.1499C657.8 95.2046 652.527 96.4923 648.475 94.0279C644.423 91.5634 643.132 86.2849 645.602 82.2288C713.916 -30.141 860.88 -65.9946 973.223 2.298L973.209 2.29148Z" fill="#1D6543"/>
<path d="M902.693 117.488C947.375 144.648 961.612 203.088 934.442 247.773C931.986 251.828 926.699 253.115 922.647 250.651C918.595 248.185 917.305 242.908 919.775 238.852C942.018 202.268 930.348 154.419 893.784 132.182C857.206 109.946 809.361 121.619 787.117 158.203C784.647 162.257 779.374 163.545 775.322 161.081C771.256 158.616 769.979 153.338 772.435 149.282C799.605 104.598 858.039 90.3418 902.707 117.495L902.693 117.488Z" fill="#1D6543"/>
<path d="M930.693 79.1055C974.848 105.952 1001.92 152.867 1003.1 204.616L1003.13 207.222C1003.17 211.963 999.353 215.846 994.608 215.88C989.876 215.929 985.991 212.109 985.949 207.356L985.921 204.999C984.867 159.136 960.888 117.564 921.757 93.7755C882.639 69.9873 830.326 67.9378 788.655 90.5104C784.478 92.7626 779.261 91.2042 777.013 87.0455C774.737 82.8757 776.291 77.6623 780.482 75.4005C827.495 49.9409 885.054 51.3596 930.679 79.0985L930.693 79.1055Z" fill="#1D6543"/>
<path d="M957.094 35.6703C1025.77 77.417 1063.05 155.847 1052.09 235.495C1051.44 240.202 1047.12 243.478 1042.41 242.835C1037.69 242.181 1034.43 237.848 1035.08 233.158C1045.1 160.3 1010.99 88.5388 948.185 50.3532C885.381 12.1673 807.618 14.9093 747.852 55.9858C743.939 58.6763 738.597 57.6941 735.905 53.775C733.227 49.8688 734.212 44.5196 738.125 41.8398C803.441 -3.06971 889.405 -5.48266 957.108 35.6768L957.094 35.6703Z" fill="#1D6543"/>
</g>
<mask id="mask2_7077_15533" style="mask-type:luminance" maskUnits="userSpaceOnUse" x="876" y="305" width="566" height="493">
<path d="M1301.22 305.479L876.062 519.566L1016.05 797.575L1441.21 583.488L1301.22 305.479Z" fill="white"/>
</mask>
<g mask="url(#mask2_7077_15533)">
<path d="M1301.75 484.836C1262.25 504.719 1213.94 488.76 1194.05 449.264C1174.17 409.768 1190.1 361.443 1229.59 341.555C1269.09 321.666 1317.4 337.63 1337.28 377.127C1357.17 416.623 1341.22 464.942 1301.73 484.825L1301.75 484.836ZM1237.33 356.906C1206.29 372.533 1193.76 410.501 1209.38 441.542C1225.02 472.582 1262.99 485.122 1294.02 469.496C1325.06 453.87 1337.59 415.901 1321.95 384.861C1306.32 353.82 1268.36 341.28 1237.33 356.906Z" fill="#1D6543"/>
<path d="M1019.83 626.783C980.342 646.672 932.025 630.711 912.126 591.205C892.241 551.698 908.185 503.389 947.691 483.5C987.183 463.611 1035.49 479.577 1055.37 519.072C1075.27 558.568 1059.31 606.899 1019.83 626.783ZM955.42 498.852C924.379 514.479 911.849 552.447 927.487 583.487C943.112 614.527 981.078 627.068 1012.11 611.441C1043.15 595.815 1055.68 557.846 1040.05 526.806C1024.41 495.766 986.448 483.214 955.407 498.841L955.42 498.852Z" fill="#1D6543"/>
<path d="M1228.26 690.723C1109.3 750.621 969.741 705.4 910.517 587.798C908.394 583.56 910.087 578.401 914.333 576.266C918.565 574.132 923.727 575.836 925.864 580.075C980.745 689.075 1110.17 730.95 1220.51 675.388C1330.86 619.824 1373.49 487.211 1318.59 378.209C1316.46 373.97 1318.16 368.812 1322.39 366.678C1326.64 364.544 1331.8 366.248 1333.93 370.487C1393.08 487.943 1345.67 631.604 1228.24 690.728L1228.26 690.723Z" fill="#1D6543"/>
<path d="M1167.88 569.914C1121.19 593.427 1064.07 574.561 1040.55 527.853C1038.41 523.616 1040.12 518.456 1044.35 516.322C1048.6 514.188 1053.76 515.892 1055.88 520.131C1075.14 558.372 1121.91 573.819 1160.14 554.567C1198.37 535.316 1213.81 488.547 1194.55 450.308C1192.41 446.069 1194.12 440.91 1198.35 438.776C1202.6 436.641 1207.76 438.345 1209.88 442.585C1233.4 489.291 1214.56 546.412 1167.87 569.92L1167.88 569.914Z" fill="#1D6543"/>
<path d="M1185.61 613.995C1139.45 637.238 1085.32 635.353 1040.81 608.951L1038.57 607.599C1034.53 605.122 1033.26 599.831 1035.74 595.782C1038.21 591.744 1043.51 590.466 1047.56 592.953L1049.58 594.171C1089.03 617.572 1137 619.244 1177.89 598.649C1218.8 578.054 1248.24 534.762 1251.16 487.466C1251.45 482.733 1255.54 479.128 1260.26 479.423C1264.99 479.708 1268.6 483.786 1268.3 488.532C1265.01 541.897 1233.31 589.973 1185.62 613.989L1185.61 613.995Z" fill="#1D6543"/>
<path d="M1208.47 659.387C1136.7 695.53 1050.42 685.626 988.658 634.15C985.008 631.111 984.523 625.705 987.561 622.053C990.628 618.39 996.026 617.921 999.662 620.954C1056.15 668.036 1135.08 677.112 1200.74 644.053C1266.39 610.992 1305.25 543.575 1302.04 471.131C1301.83 466.388 1305.5 462.381 1310.26 462.164C1314.99 461.962 1319 465.633 1319.21 470.367C1322.7 549.559 1279.23 623.758 1208.46 659.393L1208.47 659.387Z" fill="#1D6543"/>
</g>
<mask id="mask3_7077_15533" style="mask-type:luminance" maskUnits="userSpaceOnUse" x="218" y="305" width="566" height="493">
<path d="M643.364 305.342L218.207 519.43L358.198 797.439L783.355 583.351L643.364 305.342Z" fill="white"/>
</mask>
<g mask="url(#mask3_7077_15533)">
<path d="M643.894 484.7C604.402 504.584 556.086 488.625 536.198 449.128C516.309 409.632 532.24 361.306 571.738 341.418C611.229 321.529 659.546 337.495 679.431 376.991C699.316 416.486 683.372 464.806 643.88 484.689L643.894 484.7ZM579.469 356.77C548.436 372.396 535.904 410.365 551.534 441.405C567.166 472.446 605.123 484.986 636.165 469.36C667.192 453.733 679.722 415.766 664.098 384.724C648.473 353.684 610.507 341.144 579.469 356.77Z" fill="#1D6543"/>
<path d="M361.981 626.646C322.483 646.535 274.169 630.576 254.274 591.068C234.381 551.561 250.335 503.252 289.832 483.363C329.33 463.474 377.634 479.44 397.523 518.936C417.41 558.431 401.468 606.762 361.981 626.646ZM297.563 498.716C266.53 514.342 253.998 552.31 269.628 583.35C285.259 614.392 323.223 626.932 354.256 611.305C385.289 595.678 397.821 557.711 382.191 526.669C366.56 495.63 328.596 483.088 297.563 498.716Z" fill="#1D6543"/>
<path d="M570.407 690.587C451.454 750.484 311.893 705.264 252.674 587.662C250.54 583.423 252.243 578.264 256.481 576.13C260.719 573.997 265.878 575.701 268.012 579.939C322.9 688.94 452.329 730.815 562.671 675.251C673.014 619.689 715.628 487.074 660.747 378.074C658.61 373.835 660.317 368.675 664.549 366.541C668.795 364.407 673.944 366.111 676.08 370.35C735.221 487.807 687.817 631.461 570.407 690.587Z" fill="#1D6543"/>
<path d="M510.033 569.776C463.337 593.289 406.221 574.423 382.702 527.717C380.568 523.478 382.27 518.318 386.508 516.185C390.746 514.051 395.905 515.755 398.039 519.993C417.296 558.234 464.06 573.681 502.291 554.43C540.522 535.179 555.958 488.411 536.701 450.17C534.567 445.931 536.27 440.773 540.508 438.639C544.746 436.505 549.903 438.209 552.039 442.448C575.558 489.154 556.717 546.269 510.033 569.776Z" fill="#1D6543"/>
<path d="M527.752 613.858C481.595 637.101 427.465 635.216 382.943 608.814L380.716 607.461C376.672 604.985 375.398 599.693 377.885 595.644C380.349 591.606 385.65 590.328 389.699 592.816L391.718 594.034C431.176 617.435 479.141 619.106 520.038 598.512C560.937 577.917 590.38 534.625 593.296 487.329C593.595 482.595 597.688 478.991 602.406 479.286C607.137 479.571 610.731 483.649 610.44 488.394C607.137 541.761 575.447 589.842 527.752 613.858Z" fill="#1D6543"/>
<path d="M550.617 659.251C478.841 695.393 392.565 685.488 330.806 634.012C327.154 630.974 326.666 625.569 329.704 621.916C332.764 618.253 338.163 617.783 341.799 620.816C398.296 667.898 477.226 676.975 542.881 643.915C608.538 610.856 647.392 543.439 644.186 470.995C643.978 466.25 647.642 462.243 652.387 462.028C657.119 461.824 661.143 465.497 661.338 470.229C664.848 549.421 621.385 623.616 550.617 659.251Z" fill="#1D6543"/>
</g>
<mask id="mask4_7077_15533" style="mask-type:luminance" maskUnits="userSpaceOnUse" x="-366" y="284" width="569" height="514">
<path d="M-365.548 531.607L41.1992 284.324L202.897 550.295L-203.851 797.578L-365.548 531.607Z" fill="white"/>
</mask>
<g mask="url(#mask4_7077_15533)">
<path d="M56.0118 463.07C93.7998 440.098 105.847 390.661 82.8681 352.865C59.8902 315.068 10.4627 303.019 -27.3254 325.993C-65.1121 348.965 -77.1484 398.396 -54.1761 436.181C-31.2052 473.968 18.2348 486.037 56.0118 463.07ZM-18.3959 340.68C11.2939 322.631 50.1365 332.106 68.1911 361.802C86.2456 391.499 76.7792 430.344 47.0893 448.393C17.3995 466.444 -21.4432 456.968 -39.4977 427.271C-57.5508 397.576 -48.0858 358.73 -18.3959 340.68Z" fill="#1D6543"/>
<path d="M-0.121798 673.734C113.679 604.548 149.224 462.214 80.8231 349.704C78.3587 345.648 73.0801 344.361 69.0254 346.827C64.9708 349.291 63.6844 354.57 66.1503 358.624C129.549 462.906 96.5297 594.872 -9.03319 659.05C-114.597 723.228 -249.662 689.156 -313.058 584.875C-315.524 580.819 -320.803 579.531 -324.857 581.997C-328.911 584.462 -330.197 589.74 -327.733 593.795C-259.417 706.165 -112.455 742.026 -0.121798 673.734Z" fill="#1D6543"/>
<path d="M-42.644 596.907C1.51466 570.062 28.5805 523.146 29.7613 471.397L29.7933 468.792C29.8335 464.051 26.0189 460.168 21.2676 460.133C16.5372 460.085 12.6463 463.905 12.6116 468.658L12.5755 471.015C11.5334 516.876 -12.4491 558.45 -51.5776 582.238C-90.7061 606.025 -143.02 608.075 -184.684 585.503C-188.859 583.251 -194.081 584.809 -196.327 588.967C-198.596 593.138 -197.043 598.35 -192.861 600.613C-145.844 626.072 -88.2722 624.647 -42.644 596.907Z" fill="#1D6543"/>
<path d="M-16.2297 640.348C52.4374 598.601 89.7246 520.17 78.7622 440.523C78.1184 435.815 73.7917 432.538 69.0848 433.182C64.3558 433.837 61.099 438.169 61.7471 442.86C71.7686 515.716 37.6702 587.478 -25.1411 625.664C-87.9523 663.85 -165.714 661.108 -225.474 620.031C-229.386 617.341 -234.724 618.323 -237.424 622.242C-240.102 626.148 -239.113 631.497 -235.207 634.177C-169.885 679.088 -83.931 681.506 -16.2297 640.348Z" fill="#1D6543"/>
</g>
<mask id="mask5_7077_15533" style="mask-type:luminance" maskUnits="userSpaceOnUse" x="-98" y="-122" width="566" height="493">
<path d="M327.876 370.517L-97.2812 156.43L42.7099 -121.579L467.867 92.5087L327.876 370.517Z" fill="white"/>
</mask>
<g mask="url(#mask5_7077_15533)">
<path d="M328.408 191.177C288.921 171.293 240.605 187.254 220.718 226.75C200.829 266.245 216.76 314.571 256.258 334.46C295.755 354.349 344.059 338.384 363.948 298.888C383.835 259.392 367.894 211.06 328.408 191.177ZM263.988 319.107C232.955 303.481 220.423 265.514 236.054 234.472C251.684 203.432 289.65 190.891 320.683 206.518C351.716 222.145 364.246 260.113 348.616 291.153C332.985 322.193 295.021 334.735 263.988 319.107Z" fill="#1D6543"/>
<path d="M46.4942 49.2351C6.9966 29.346 -41.3195 45.3056 -61.214 84.8129C-81.1071 124.32 -65.1535 172.628 -25.6558 192.517C13.8418 212.406 62.1454 196.441 82.0343 156.945C101.922 117.449 85.9794 69.1188 46.4942 49.2351ZM-17.9253 177.166C-48.9584 161.538 -61.4901 123.571 -45.8598 92.5296C-30.2294 61.4896 7.73624 48.9492 38.7693 64.5756C69.8024 80.2032 82.3327 118.17 66.7023 149.21C51.072 180.252 13.1078 192.792 -17.9253 177.166Z" fill="#1D6543"/>
<path d="M254.918 -14.7103C135.966 -74.6089 -3.59516 -29.3879 -62.8138 88.2145C-64.948 92.4538 -63.2454 97.6116 -59.0076 99.7458C-54.7697 101.88 -49.6105 100.176 -47.4763 95.9367C7.41018 -13.0636 136.84 -54.9379 247.182 0.624822C357.524 56.1877 400.144 188.801 345.256 297.803C343.122 302.042 344.825 307.2 349.062 309.334C353.3 311.468 358.459 309.764 360.594 305.525C419.739 188.069 372.334 44.4147 254.918 -14.7103Z" fill="#1D6543"/>
<path d="M194.551 106.108C147.855 82.5942 90.7403 101.46 67.2213 148.167C65.0871 152.406 66.7898 157.565 71.0276 159.699C75.2654 161.834 80.4233 160.13 82.5588 155.89C101.814 117.65 148.578 102.203 186.809 121.454C225.04 140.706 240.476 187.473 221.221 225.713C219.085 229.953 220.788 235.112 225.026 237.246C229.264 239.379 234.423 237.675 236.557 233.437C260.076 186.729 241.235 129.616 194.551 106.108Z" fill="#1D6543"/>
<path d="M212.264 62.0411C166.107 38.7983 111.977 40.6825 67.4535 67.0852L65.2264 68.4381C61.1828 70.9137 59.9103 76.2047 62.397 80.2538C64.86 84.2932 70.1622 85.5699 74.2113 83.0832L76.2303 81.8649C115.686 58.4635 163.651 56.7926 204.55 77.387C245.45 97.9823 274.891 141.274 277.806 188.57C278.108 193.303 282.194 196.908 286.911 196.613C291.651 196.328 295.249 192.25 294.955 187.504C291.652 134.138 259.957 86.0569 212.264 62.0411Z" fill="#1D6543"/>
<path d="M235.135 16.6292C163.36 -19.5132 77.0834 -9.60913 15.3253 41.8664C11.6731 44.9052 11.186 50.3109 14.2236 53.9631C17.2833 57.6268 22.6825 58.0963 26.3181 55.0631C82.8143 7.98081 161.746 -1.09557 227.399 31.9644C293.053 65.0248 331.906 132.44 328.706 204.884C328.496 209.629 332.156 213.636 336.911 213.851C341.643 214.055 345.656 210.384 345.861 205.65C349.366 126.458 305.901 52.2634 235.135 16.6292Z" fill="#1D6543"/>
</g>
<mask id="mask6_7077_15533" style="mask-type:luminance" maskUnits="userSpaceOnUse" x="1581" y="284" width="569" height="514">
<path d="M1581.12 531.607L1987.86 284.324L2149.56 550.295L1742.81 797.578L1581.12 531.607Z" fill="white"/>
</mask>
<g mask="url(#mask6_7077_15533)">
<path d="M1732.97 627.028C1770.75 604.063 1782.8 554.626 1759.82 516.84C1736.85 479.054 1687.42 466.977 1649.64 489.951C1611.85 512.923 1599.81 562.353 1622.79 600.139C1645.75 637.925 1695.19 649.993 1732.97 627.028ZM1658.56 504.637C1688.26 486.588 1727.1 496.063 1745.15 525.76C1763.2 555.457 1753.74 594.302 1724.04 612.352C1694.36 630.401 1655.52 620.925 1637.47 591.23C1619.4 561.533 1628.88 522.688 1658.56 504.637Z" fill="#1D6543"/>
<path d="M1946.54 673.717C2060.35 604.531 2095.89 462.197 2027.49 349.688C2025.02 345.633 2019.75 344.346 2015.7 346.81C2011.63 349.274 2010.36 354.553 2012.81 358.609C2076.21 462.89 2043.2 594.857 1937.63 659.035C1832.07 723.213 1697 689.139 1633.61 584.859C1631.14 580.804 1625.87 579.516 1621.8 581.981C1617.75 584.445 1616.48 589.724 1618.93 593.78C1687.25 706.15 1834.22 742.003 1946.55 673.71L1946.54 673.717Z" fill="#1D6543"/>
<path d="M1876.03 558.523C1920.7 531.364 1934.94 472.923 1907.78 428.24C1905.31 424.184 1900.04 422.896 1895.99 425.362C1891.92 427.826 1890.64 433.105 1893.1 437.159C1915.34 473.744 1903.69 521.594 1867.11 543.83C1830.53 566.065 1782.69 554.394 1760.44 517.809C1757.99 513.754 1752.7 512.466 1748.65 514.931C1744.59 517.397 1743.3 522.675 1745.77 526.73C1772.94 571.414 1831.38 585.67 1876.05 558.516L1876.03 558.523Z" fill="#1D6543"/>
<path d="M1904.03 596.889C1948.19 570.042 1975.25 523.128 1976.44 471.379L1976.47 468.773C1976.51 464.031 1972.69 460.148 1967.93 460.114C1963.22 460.065 1959.32 463.885 1959.29 468.638L1959.25 470.996C1958.21 516.858 1934.23 558.43 1895.1 582.219C1855.97 606.007 1803.65 608.056 1762 585.484C1757.82 583.232 1752.59 584.79 1750.34 588.949C1748.08 593.118 1749.63 598.332 1753.81 600.594C1800.84 626.054 1858.39 624.634 1904.02 596.896L1904.03 596.889Z" fill="#1D6543"/>
<path d="M1930.44 640.332C1999.1 598.586 2036.39 520.154 2025.42 440.507C2024.79 435.8 2020.46 432.524 2015.75 433.166C2011.02 433.823 2007.76 438.154 2008.41 442.844C2018.43 515.701 1984.34 587.463 1921.53 625.649C1858.71 663.836 1780.95 661.094 1721.2 620.017C1717.29 617.326 1711.94 618.309 1709.24 622.227C1706.56 626.134 1707.56 631.483 1711.46 634.162C1776.79 679.072 1862.75 681.485 1930.45 640.326L1930.44 640.332Z" fill="#1D6543"/>
</g>
<mask id="mask7_7077_15533" style="mask-type:luminance" maskUnits="userSpaceOnUse" x="1191" y="-122" width="566" height="493">
<path d="M1616.69 370.654L1191.54 156.566L1331.53 -121.442L1756.68 92.6454L1616.69 370.654Z" fill="white"/>
</mask>
<g mask="url(#mask7_7077_15533)">
<path d="M1617.22 191.314C1577.74 171.43 1529.42 187.39 1509.54 226.886C1489.65 266.382 1505.58 314.706 1545.08 334.595C1584.57 354.484 1632.87 338.52 1652.77 299.023C1672.66 259.527 1656.71 211.197 1617.22 191.314ZM1552.81 319.244C1521.78 303.618 1509.25 265.649 1524.87 234.609C1540.5 203.568 1578.46 191.028 1609.5 206.654C1640.53 222.282 1653.06 260.249 1637.44 291.29C1621.8 322.33 1583.85 334.87 1552.81 319.244Z" fill="#1D6543"/>
<path d="M1335.31 49.3717C1295.82 29.4828 1247.5 45.4424 1227.6 84.9494C1207.72 124.457 1223.68 172.764 1263.17 192.653C1302.66 212.542 1350.96 196.578 1370.86 157.081C1390.75 117.585 1374.8 69.2551 1335.31 49.3717ZM1270.9 177.302C1239.87 161.676 1227.34 123.707 1242.97 92.6674C1258.59 61.6261 1296.56 49.0859 1327.6 64.7122C1358.62 80.3397 1371.15 118.307 1355.53 149.348C1339.89 180.388 1301.93 192.928 1270.9 177.302Z" fill="#1D6543"/>
<path d="M1543.73 -14.5737C1424.79 -74.4721 1285.23 -29.2512 1226.01 88.3511C1223.87 92.5903 1225.58 97.7495 1229.81 99.8823C1234.06 102.016 1239.2 100.312 1241.34 96.0733C1296.24 -12.9269 1425.66 -54.8012 1536.01 0.761654C1646.35 56.3243 1688.96 188.938 1634.08 297.939C1631.95 302.179 1633.65 307.338 1637.89 309.471C1642.12 311.605 1647.28 309.901 1649.42 305.663C1708.56 188.207 1661.14 44.5514 1543.73 -14.5737Z" fill="#1D6543"/>
<path d="M1483.38 106.244C1436.68 82.7306 1379.57 101.598 1356.05 148.305C1353.91 152.544 1355.62 157.702 1359.85 159.836C1364.08 161.97 1369.24 160.266 1371.38 156.027C1390.64 117.788 1437.4 102.341 1475.63 121.591C1513.86 140.842 1529.29 187.611 1510.05 225.851C1507.91 230.089 1509.62 235.248 1513.85 237.382C1518.08 239.517 1523.24 237.813 1525.38 233.573C1548.9 186.867 1530.04 129.746 1483.36 106.239L1483.38 106.244Z" fill="#1D6543"/>
<path d="M1501.1 62.1816C1454.95 38.939 1400.81 40.8232 1356.28 67.2256L1354.06 68.5785C1350.01 71.0541 1348.75 76.3451 1351.23 80.3957C1353.69 84.4337 1358.99 85.7117 1363.04 83.2236L1365.07 82.0053C1404.52 58.6041 1452.49 56.9331 1493.38 77.5274C1534.28 98.1227 1563.72 141.414 1566.64 188.71C1566.94 193.443 1571.02 197.048 1575.74 196.753C1580.48 196.468 1584.08 192.39 1583.79 187.646C1580.48 134.279 1548.8 86.2029 1501.11 62.1871L1501.1 62.1816Z" fill="#1D6543"/>
<path d="M1523.96 16.7659C1452.18 -19.3764 1365.91 -9.47247 1304.15 42.0031C1300.5 45.0419 1300.01 50.4475 1303.05 54.0999C1306.1 57.7636 1311.5 58.2331 1315.14 55.1998C1371.64 8.11746 1450.57 -0.958774 1516.22 32.1011C1581.88 65.1608 1620.72 132.578 1617.53 205.022C1617.32 209.766 1620.97 213.774 1625.73 213.989C1630.46 214.193 1634.47 210.52 1634.68 205.788C1638.19 126.595 1594.72 52.3945 1523.95 16.7602L1523.96 16.7659Z" fill="#1D6543"/>
</g>
<mask id="mask8_7077_15533" style="mask-type:luminance" maskUnits="userSpaceOnUse" x="607" y="690" width="570" height="514">
<path d="M607.77 956.015L1014.52 1203.3L1176.21 937.332L769.469 690.047L607.77 956.015Z" fill="white"/>
</mask>
<g mask="url(#mask8_7077_15533)">
<path d="M759.638 860.607C797.409 883.574 809.467 933.01 786.488 970.795C763.523 1008.58 714.095 1020.66 676.296 997.685C638.511 974.713 626.48 925.282 649.445 887.497C672.425 849.71 721.852 837.641 759.638 860.607ZM685.233 982.998C714.914 1001.05 753.768 991.572 771.821 961.876C789.874 932.179 780.41 893.333 750.715 875.284C721.02 857.234 682.18 866.71 664.127 896.406C646.074 926.102 655.537 964.948 685.233 982.998Z" fill="#1D6543"/>
<path d="M1029.34 1024.57C1067.13 1047.55 1079.17 1096.98 1056.19 1134.78C1033.23 1172.58 983.798 1184.62 945.999 1161.65C908.214 1138.68 896.183 1089.25 919.149 1051.46C942.128 1013.68 991.555 1001.61 1029.34 1024.57ZM954.936 1146.96C984.617 1165.01 1023.47 1155.54 1041.52 1125.84C1059.58 1096.14 1050.11 1057.3 1020.42 1039.25C990.723 1021.2 951.883 1030.67 933.83 1060.37C915.777 1090.07 925.24 1128.92 954.922 1146.97L954.936 1146.96Z" fill="#1D6543"/>
<path d="M973.209 813.916C1087.01 883.102 1122.56 1025.44 1054.15 1137.95C1051.69 1142 1046.41 1143.29 1042.35 1140.82C1038.3 1138.36 1037.01 1133.08 1039.48 1129.02C1102.88 1024.74 1069.86 892.777 964.3 828.6C858.729 764.422 723.671 798.494 660.27 902.774C657.8 906.829 652.527 908.117 648.475 905.653C644.423 903.188 643.132 897.909 645.602 893.853C713.916 781.484 860.894 745.63 973.223 813.923L973.209 813.916Z" fill="#1D6543"/>
<path d="M902.693 929.117C947.375 956.277 961.612 1014.72 934.442 1059.4C931.986 1063.46 926.7 1064.74 922.648 1062.28C918.596 1059.81 917.305 1054.54 919.775 1050.48C942.019 1013.9 930.349 966.048 893.785 943.811C857.207 921.575 809.361 933.248 787.117 969.832C784.647 973.888 779.374 975.174 775.322 972.709C771.271 970.245 769.98 964.967 772.45 960.91C799.606 916.227 858.053 901.971 902.707 929.124L902.693 929.117Z" fill="#1D6543"/>
<path d="M930.687 890.73C974.856 917.577 1001.91 964.491 1003.09 1016.24L1003.12 1018.85C1003.16 1023.59 999.347 1027.47 994.602 1027.5C989.87 1027.55 985.984 1023.73 985.943 1018.98L985.915 1016.62C984.86 970.76 960.882 929.188 921.751 905.4C882.633 881.612 830.32 879.562 788.649 902.135C784.472 904.387 779.255 902.829 777.007 898.67C774.745 894.5 776.285 889.287 780.476 887.025C827.489 861.566 885.048 862.984 930.673 890.724L930.687 890.73Z" fill="#1D6543"/>
<path d="M957.094 847.299C1025.77 889.046 1063.05 967.477 1052.09 1047.12C1051.45 1051.83 1047.12 1055.11 1042.41 1054.46C1037.69 1053.81 1034.43 1049.48 1035.08 1044.79C1045.1 971.93 1011 900.168 948.185 861.983C885.381 823.797 807.618 826.539 747.852 867.616C743.939 870.306 738.611 869.324 735.905 865.404C733.227 861.497 734.212 856.15 738.125 853.469C803.441 808.559 889.405 806.146 957.108 847.306L957.094 847.299Z" fill="#1D6543"/>
</g>
<mask id="mask9_7077_15533" style="mask-type:luminance" maskUnits="userSpaceOnUse" x="-366" y="1095" width="569" height="515">
<path d="M-365.548 1343.24L41.1992 1095.95L202.897 1361.92L-203.851 1609.21L-365.548 1343.24Z" fill="white"/>
</mask>
<g mask="url(#mask9_7077_15533)">
<path d="M56.0122 1274.7C93.7989 1251.73 105.846 1202.29 82.8685 1164.49C59.8893 1126.7 10.4631 1114.65 -27.325 1137.62C-65.1116 1160.59 -77.148 1210.02 -54.1771 1247.81C-31.2048 1285.6 18.2366 1297.67 56.0122 1274.7ZM-18.3955 1152.31C11.2943 1134.26 50.137 1143.73 68.1915 1173.43C86.2446 1203.13 76.7782 1241.97 47.0897 1260.02C17.3999 1278.07 -21.4428 1268.6 -39.4973 1238.9C-57.5504 1209.2 -48.084 1170.36 -18.3955 1152.31Z" fill="#1D6543"/>
</g>
<mask id="mask10_7077_15533" style="mask-type:luminance" maskUnits="userSpaceOnUse" x="-98" y="690" width="566" height="493">
<path d="M327.876 1182.13L-97.2812 968.043L42.7099 690.034L467.867 904.122L327.876 1182.13Z" fill="white"/>
</mask>
<g mask="url(#mask10_7077_15533)">
<path d="M328.407 1002.77C288.922 982.887 240.606 998.847 220.717 1038.34C200.829 1077.84 216.761 1126.16 256.258 1146.05C295.756 1165.94 344.059 1149.98 363.948 1110.48C383.836 1070.98 367.893 1022.65 328.407 1002.77ZM263.989 1130.7C232.956 1115.07 220.424 1077.11 236.054 1046.07C251.685 1015.03 289.65 1002.48 320.683 1018.11C351.715 1033.74 364.247 1071.71 348.616 1102.75C332.986 1133.79 295.022 1146.33 263.989 1130.7Z" fill="#1D6543"/>
<path d="M46.4942 860.829C6.9966 840.94 -41.3195 856.899 -61.214 896.406C-81.1071 935.914 -65.1535 984.221 -25.6558 1004.11C13.8418 1024 62.1454 1008.03 82.0343 968.538C101.922 929.042 85.9794 880.712 46.4942 860.829ZM-17.9253 988.759C-48.9584 973.131 -61.4901 935.164 -45.8598 904.124C-30.2294 873.083 7.73624 860.543 38.7693 876.169C69.8024 891.797 82.3327 929.764 66.7023 960.804C51.072 991.845 13.1078 1004.39 -17.9253 988.759Z" fill="#1D6543"/>
<path d="M254.918 796.883C135.965 736.985 -3.59516 782.206 -62.8138 899.808C-64.948 904.048 -63.2454 909.205 -59.0076 911.34C-54.7697 913.474 -49.6119 911.77 -47.4763 907.531C7.41018 798.53 136.839 756.656 247.182 812.218C357.524 867.782 400.144 1000.4 345.256 1109.4C343.122 1113.64 344.825 1118.8 349.062 1120.93C353.3 1123.06 358.459 1121.36 360.594 1117.12C419.739 999.663 372.334 856.009 254.918 796.883Z" fill="#1D6543"/>
<path d="M194.543 917.701C147.848 894.188 90.7331 913.054 67.2141 959.761C65.0785 964 66.7825 969.159 71.0204 971.293C75.2582 973.427 80.416 971.723 82.5502 967.484C101.806 929.244 148.571 913.797 186.802 933.047C225.033 952.299 240.469 999.067 221.212 1037.31C219.078 1041.55 220.781 1046.71 225.019 1048.84C229.257 1050.97 234.416 1049.27 236.55 1045.03C260.069 998.323 241.228 941.209 194.543 917.701Z" fill="#1D6543"/>
<path d="M212.264 873.635C166.107 850.392 111.977 852.276 67.4535 878.679L65.2264 880.032C61.1828 882.507 59.9103 887.798 62.397 891.848C64.86 895.887 70.1622 897.163 74.2113 894.677L76.2303 893.459C115.686 870.057 163.651 868.387 204.55 888.981C245.45 909.576 274.891 952.867 277.806 1000.16C278.108 1004.9 282.194 1008.5 286.911 1008.21C291.651 1007.92 295.249 1003.84 294.955 999.098C291.652 945.732 259.957 897.651 212.264 873.635Z" fill="#1D6543"/>
<path d="M235.135 828.223C163.36 792.081 77.0834 801.984 15.3253 853.46C11.6731 856.499 11.186 861.905 14.2236 865.557C17.2833 869.221 22.6825 869.69 26.3181 866.658C82.8143 819.575 161.746 810.499 227.399 843.558C293.053 876.618 331.906 944.035 328.706 1016.48C328.496 1021.22 332.156 1025.23 336.911 1025.45C341.643 1025.65 345.656 1021.98 345.861 1017.24C349.366 938.052 305.901 863.858 235.135 828.223Z" fill="#1D6543"/>
</g>
<mask id="mask11_7077_15533" style="mask-type:luminance" maskUnits="userSpaceOnUse" x="1191" y="690" width="566" height="493">
<path d="M1616.69 1182.29L1191.54 968.199L1331.53 690.191L1756.68 904.278L1616.69 1182.29Z" fill="white"/>
</mask>
<g mask="url(#mask11_7077_15533)">
<path d="M1617.22 1002.94C1577.74 983.059 1529.42 999.018 1509.54 1038.51C1489.65 1078.01 1505.58 1126.34 1545.08 1146.22C1584.57 1166.11 1632.87 1150.15 1652.77 1110.65C1672.66 1071.16 1656.71 1022.83 1617.22 1002.94ZM1552.81 1130.87C1521.78 1115.25 1509.25 1077.28 1524.87 1046.24C1540.5 1015.2 1578.46 1002.66 1609.5 1018.28C1640.53 1033.91 1653.06 1071.88 1637.44 1102.92C1621.8 1133.96 1583.85 1146.5 1552.81 1130.87Z" fill="#1D6543"/>
<path d="M1335.31 861.001C1295.82 841.112 1247.5 857.071 1227.6 896.578C1207.72 936.086 1223.68 984.393 1263.17 1004.28C1302.66 1024.17 1350.96 1008.21 1370.86 968.71C1390.75 929.214 1374.8 880.884 1335.31 861.001ZM1270.9 988.931C1239.87 973.303 1227.34 935.336 1242.97 904.295C1258.59 873.255 1296.56 860.715 1327.6 876.341C1358.62 891.969 1371.15 929.936 1355.53 960.976C1339.89 992.017 1301.93 1004.56 1270.9 988.931Z" fill="#1D6543"/>
<path d="M1543.73 797.055C1424.79 737.157 1285.23 782.378 1226.01 899.98C1223.87 904.219 1225.58 909.377 1229.81 911.511C1234.06 913.646 1239.2 911.942 1241.34 907.702C1296.24 798.702 1425.66 756.828 1536.01 812.39C1646.35 867.954 1688.96 1000.57 1634.08 1109.57C1631.95 1113.81 1633.65 1118.97 1637.89 1121.1C1642.12 1123.23 1647.28 1121.53 1649.42 1117.29C1708.56 999.834 1661.14 856.181 1543.73 797.055Z" fill="#1D6543"/>
<path d="M1483.38 917.873C1436.68 894.36 1379.57 913.226 1356.05 959.932C1353.91 964.172 1355.62 969.331 1359.85 971.465C1364.08 973.599 1369.24 971.895 1371.38 967.656C1390.64 929.416 1437.4 913.968 1475.63 933.219C1513.86 952.471 1529.29 999.239 1510.05 1037.48C1507.91 1041.72 1509.62 1046.88 1513.85 1049.01C1518.08 1051.14 1523.24 1049.44 1525.38 1045.2C1548.9 998.495 1530.04 941.376 1483.36 917.868L1483.38 917.873Z" fill="#1D6543"/>
<path d="M1501.1 873.807C1454.95 850.564 1400.81 852.448 1356.28 878.851L1354.06 880.204C1350.01 882.679 1348.75 887.97 1351.23 892.019C1353.69 896.059 1358.99 897.335 1363.04 894.849L1365.07 893.631C1404.52 870.229 1452.49 868.559 1493.38 889.153C1534.28 909.748 1563.72 953.039 1566.64 1000.34C1566.94 1005.07 1571.02 1008.67 1575.74 1008.38C1580.48 1008.09 1584.08 1004.02 1583.79 999.27C1580.48 945.904 1548.8 897.828 1501.11 873.812L1501.1 873.807Z" fill="#1D6543"/>
<path d="M1523.96 828.395C1452.18 792.253 1365.91 802.156 1304.15 853.632C1300.5 856.671 1300.01 862.077 1303.05 865.729C1306.1 869.393 1311.5 869.862 1315.14 866.828C1371.64 819.747 1450.57 810.671 1516.22 843.73C1581.88 876.79 1620.72 944.207 1617.53 1016.65C1617.32 1021.39 1620.97 1025.4 1625.73 1025.62C1630.46 1025.82 1634.47 1022.15 1634.68 1017.42C1638.19 938.223 1594.72 864.024 1523.95 828.389L1523.96 828.395Z" fill="#1D6543"/>
</g>
</g>
</g>
<g clip-path="url(#clip4_7077_15533)">
<mask id="mask12_7077_15533" style="mask-type:alpha" maskUnits="userSpaceOnUse" x="1845" y="-79" width="2637" height="2477">
<path d="M4481.57 -78.2266H1845.07V2397.88H4481.57V-78.2266Z" fill="#D3DE6E"/>
</mask>
<g mask="url(#mask12_7077_15533)">
<path d="M4692.11 -78.2266H1604.48V2397.88H4692.11V-78.2266Z" fill="#164A31"/>
<mask id="mask13_7077_15533" style="mask-type:luminance" maskUnits="userSpaceOnUse" x="3244" y="-122" width="569" height="514">
<path d="M3244.29 144.371L3651.03 391.656L3812.73 125.688L3405.98 -121.598L3244.29 144.371Z" fill="white"/>
</mask>
<g mask="url(#mask13_7077_15533)">
<path d="M3396.14 48.9629C3433.91 71.9294 3445.97 121.365 3422.99 159.152C3400.03 196.937 3350.6 209.014 3312.8 186.041C3275.01 163.068 3262.98 113.637 3285.95 75.8522C3308.93 38.0665 3358.36 25.9966 3396.14 48.9629ZM3321.74 171.353C3351.42 189.404 3390.27 179.928 3408.32 150.231C3426.38 120.534 3416.91 81.6886 3387.22 63.6396C3357.52 45.5898 3318.68 55.0654 3300.63 84.7622C3282.58 114.459 3292.04 153.304 3321.74 171.353Z" fill="#1D6543"/>
<path d="M3665.84 212.928C3703.63 235.901 3715.67 285.336 3692.7 323.134C3669.73 360.931 3620.3 372.978 3582.5 350.006C3544.72 327.033 3532.69 277.603 3555.65 239.816C3578.63 202.031 3628.06 189.963 3665.84 212.928ZM3591.44 335.319C3621.12 353.368 3659.97 343.892 3678.03 314.196C3696.08 284.5 3686.62 245.654 3656.92 227.604C3627.23 209.555 3588.39 219.03 3570.33 248.726C3552.28 278.423 3561.74 317.28 3591.43 335.329L3591.44 335.319Z" fill="#1D6543"/>
<path d="M3609.72 2.27195C3723.52 71.4579 3759.05 213.792 3690.66 326.301C3688.2 330.356 3682.91 331.644 3678.86 329.179C3674.81 326.715 3673.52 321.436 3675.99 317.38C3739.39 213.099 3706.37 81.1325 3600.81 16.9551C3495.24 -47.2229 3360.18 -13.1508 3296.78 91.1304C3294.31 95.185 3289.03 96.4728 3284.98 94.0083C3280.93 91.5439 3279.64 86.2653 3282.11 82.2093C3350.42 -30.1605 3497.39 -66.0141 3609.73 2.27847L3609.72 2.27195Z" fill="#1D6543"/>
<path d="M3539.2 117.453C3583.88 144.613 3598.12 203.053 3570.95 247.738C3568.49 251.793 3563.2 253.08 3559.15 250.616C3555.1 248.15 3553.81 242.873 3556.28 238.817C3578.52 202.233 3566.85 154.383 3530.29 132.147C3493.71 109.911 3445.86 121.584 3423.62 158.168C3421.15 162.222 3415.88 163.51 3411.83 161.045C3407.76 158.581 3406.48 153.302 3408.94 149.246C3436.11 104.563 3494.54 90.3066 3539.21 117.46L3539.2 117.453Z" fill="#1D6543"/>
<path d="M3567.2 79.0859C3611.35 105.932 3638.42 152.847 3639.6 204.596L3639.63 207.202C3639.67 211.944 3635.86 215.826 3631.11 215.861C3626.38 215.909 3622.49 212.089 3622.45 207.337L3622.43 204.979C3621.37 159.116 3597.39 117.544 3558.26 93.756C3519.14 69.9678 3466.83 67.9183 3425.16 90.4909C3420.98 92.743 3415.76 91.1847 3413.52 87.026C3411.24 82.8561 3412.8 77.6428 3416.99 75.3809C3464 49.9213 3521.56 51.34 3567.18 79.079L3567.2 79.0859Z" fill="#1D6543"/>
<path d="M3593.6 35.6507C3662.27 77.3974 3699.56 155.828 3688.6 235.475C3687.94 240.182 3683.63 243.458 3678.91 242.816C3674.19 242.161 3670.93 237.829 3671.58 233.139C3681.6 160.281 3647.49 88.5193 3584.69 50.3337C3521.88 12.1478 3444.12 14.8898 3384.36 55.9663C3380.44 58.6567 3375.1 57.6746 3372.41 53.7555C3369.73 49.8493 3370.72 44.5001 3374.63 41.8203C3439.94 -3.08924 3525.91 -5.50219 3593.61 35.6573L3593.6 35.6507Z" fill="#1D6543"/>
</g>
<mask id="mask14_7077_15533" style="mask-type:luminance" maskUnits="userSpaceOnUse" x="3512" y="305" width="566" height="493">
<path d="M3937.72 305.455L3512.57 519.543L3652.56 797.552L4077.71 583.464L3937.72 305.455Z" fill="white"/>
</mask>
<g mask="url(#mask14_7077_15533)">
<path d="M3938.25 484.817C3898.76 504.7 3850.44 488.741 3830.56 449.245C3810.67 409.748 3826.6 361.424 3866.09 341.535C3905.6 321.646 3953.9 337.611 3973.79 377.107C3993.67 416.603 3977.73 464.922 3938.24 484.805L3938.25 484.817ZM3873.84 356.886C3842.79 372.514 3830.26 410.481 3845.89 441.522C3861.53 472.562 3899.49 485.102 3930.52 469.476C3961.56 453.85 3974.09 415.882 3958.45 384.842C3942.83 353.8 3904.86 341.26 3873.84 356.886Z" fill="#1D6543"/>
<path d="M3656.34 626.767C3616.85 646.656 3568.53 630.695 3548.63 591.189C3528.75 551.682 3544.69 503.373 3584.2 483.484C3623.69 463.595 3671.99 479.561 3691.88 519.056C3711.77 558.552 3695.82 606.884 3656.34 626.767ZM3591.92 498.837C3560.88 514.463 3548.35 552.431 3563.99 583.471C3579.62 614.511 3617.58 627.053 3648.61 611.425C3679.65 595.799 3692.18 557.831 3676.56 526.791C3660.92 495.751 3622.95 483.198 3591.91 498.826L3591.92 498.837Z" fill="#1D6543"/>
<path d="M3864.76 690.707C3745.8 750.606 3606.24 705.384 3547.02 587.782C3544.89 583.544 3546.59 578.385 3550.83 576.251C3555.07 574.117 3560.23 575.821 3562.36 580.06C3617.24 689.06 3746.67 730.934 3857.01 675.372C3967.36 619.809 4009.99 487.195 3955.09 378.194C3952.96 373.954 3954.66 368.797 3958.89 366.662C3963.14 364.528 3968.3 366.232 3970.43 370.471C4029.58 487.928 3982.17 631.588 3864.74 690.712L3864.76 690.707Z" fill="#1D6543"/>
<path d="M3804.38 569.898C3757.69 593.412 3700.57 574.546 3677.05 527.838C3674.91 523.6 3676.62 518.441 3680.85 516.307C3685.1 514.172 3690.26 515.876 3692.38 520.116C3711.64 558.356 3758.41 573.803 3796.64 554.551C3834.87 535.301 3850.31 488.532 3831.05 450.293C3828.91 446.053 3830.62 440.894 3834.85 438.76C3839.1 436.626 3844.26 438.33 3846.38 442.569C3869.9 489.275 3851.06 546.396 3804.37 569.904L3804.38 569.898Z" fill="#1D6543"/>
<path d="M3822.11 613.959C3775.95 637.202 3721.82 635.318 3677.31 608.915L3675.07 607.564C3671.03 605.087 3669.76 599.796 3672.24 595.747C3674.71 591.709 3680.01 590.431 3684.06 592.917L3686.08 594.136C3725.53 617.537 3773.5 619.209 3814.39 598.614C3855.3 578.018 3884.74 534.727 3887.66 487.431C3887.95 482.698 3892.04 479.092 3896.76 479.388C3901.49 479.673 3905.1 483.751 3904.8 488.497C3901.51 541.862 3869.81 589.938 3822.12 613.954L3822.11 613.959Z" fill="#1D6543"/>
<path d="M3844.98 659.372C3773.21 695.514 3686.93 685.61 3625.16 634.135C3621.51 631.096 3621.03 625.69 3624.07 622.037C3627.13 618.374 3632.53 617.905 3636.17 620.938C3692.66 668.021 3771.58 677.096 3837.25 644.037C3902.9 610.977 3941.75 543.56 3938.54 471.115C3938.34 466.373 3942 462.365 3946.76 462.149C3951.49 461.946 3955.5 465.618 3955.71 470.351C3959.21 549.543 3915.73 623.743 3844.96 659.377L3844.98 659.372Z" fill="#1D6543"/>
</g>
<mask id="mask15_7077_15533" style="mask-type:luminance" maskUnits="userSpaceOnUse" x="2854" y="305" width="566" height="493">
<path d="M3279.87 305.319L2854.71 519.406L2994.7 797.415L3419.86 583.328L3279.87 305.319Z" fill="white"/>
</mask>
<g mask="url(#mask15_7077_15533)">
<path d="M3280.4 484.681C3240.91 504.564 3192.59 488.605 3172.7 449.109C3152.81 409.613 3168.74 361.287 3208.24 341.398C3247.73 321.509 3296.05 337.475 3315.93 376.971C3335.82 416.466 3319.88 464.786 3280.38 484.67L3280.4 484.681ZM3215.97 356.751C3184.94 372.377 3172.41 410.345 3188.04 441.385C3203.67 472.427 3241.63 484.967 3272.67 469.341C3303.7 453.713 3316.23 415.746 3300.6 384.705C3284.98 353.665 3247.01 341.125 3215.97 356.751Z" fill="#1D6543"/>
<path d="M2998.48 626.63C2958.99 646.519 2910.67 630.56 2890.78 591.053C2870.89 551.545 2886.84 503.236 2926.34 483.347C2965.83 463.458 3014.14 479.424 3034.03 518.921C3053.91 558.415 3037.97 606.747 2998.48 626.63ZM2934.07 498.7C2903.03 514.326 2890.5 552.295 2906.13 583.335C2921.76 614.376 2959.73 626.916 2990.76 611.29C3021.79 595.662 3034.32 557.695 3018.69 526.654C3003.06 495.614 2965.1 483.072 2934.07 498.7Z" fill="#1D6543"/>
<path d="M3206.91 690.568C3087.96 750.465 2948.4 705.245 2889.18 587.643C2887.04 583.403 2888.75 578.244 2892.98 576.11C2897.22 573.977 2902.38 575.681 2904.52 579.919C2959.4 688.921 3088.83 730.795 3199.17 675.232C3309.52 619.669 3352.13 487.054 3297.25 378.054C3295.11 373.815 3296.82 368.656 3301.05 366.522C3305.3 364.388 3310.45 366.092 3312.58 370.331C3371.73 487.787 3324.32 631.442 3206.91 690.568Z" fill="#1D6543"/>
<path d="M3146.54 569.756C3099.84 593.27 3042.72 574.404 3019.21 527.697C3017.07 523.458 3018.77 518.299 3023.01 516.166C3027.25 514.032 3032.41 515.736 3034.54 519.974C3053.8 558.214 3100.56 573.661 3138.79 554.411C3177.03 535.16 3192.46 488.391 3173.21 450.151C3171.07 445.911 3172.77 440.754 3177.01 438.619C3181.25 436.485 3186.41 438.189 3188.54 442.428C3212.06 489.135 3193.22 546.25 3146.54 569.756Z" fill="#1D6543"/>
<path d="M3164.26 613.838C3118.1 637.081 3063.97 635.197 3019.45 608.794L3017.22 607.441C3013.18 604.966 3011.9 599.673 3014.39 595.624C3016.85 591.586 3022.15 590.308 3026.2 592.796L3028.22 594.015C3067.68 617.416 3115.64 619.086 3156.54 598.493C3197.44 577.897 3226.88 534.606 3229.8 487.31C3230.1 482.575 3234.19 478.971 3238.91 479.267C3243.64 479.551 3247.24 483.63 3246.94 488.374C3243.64 541.741 3211.95 589.823 3164.26 613.838Z" fill="#1D6543"/>
<path d="M3187.12 659.235C3115.35 695.377 3029.07 685.473 2967.31 633.997C2963.66 630.958 2963.17 625.553 2966.21 621.901C2969.27 618.237 2974.67 617.767 2978.3 620.8C3034.8 667.883 3113.73 676.959 3179.38 643.899C3245.04 610.84 3283.9 543.423 3280.69 470.979C3280.48 466.235 3284.15 462.227 3288.89 462.012C3293.62 461.808 3297.65 465.481 3297.84 470.213C3301.35 549.405 3257.89 623.601 3187.12 659.235Z" fill="#1D6543"/>
</g>
<mask id="mask16_7077_15533" style="mask-type:luminance" maskUnits="userSpaceOnUse" x="2270" y="284" width="570" height="514">
<path d="M2270.95 531.591L2677.7 284.309L2839.39 550.279L2432.65 797.562L2270.95 531.591Z" fill="white"/>
</mask>
<g mask="url(#mask16_7077_15533)">
<path d="M2422.8 627.013C2460.58 604.046 2472.63 554.61 2449.65 516.824C2426.68 479.038 2377.25 466.962 2339.47 489.934C2301.68 512.908 2289.64 562.338 2312.61 600.123C2335.59 637.909 2385.02 649.98 2422.8 627.013ZM2348.39 504.622C2378.08 486.572 2416.93 496.048 2434.98 525.745C2453.03 555.442 2443.57 594.287 2413.88 612.336C2384.19 630.386 2345.35 620.91 2327.29 591.213C2309.24 561.517 2318.7 522.671 2348.39 504.622Z" fill="#1D6543"/>
<path d="M2692.51 463.055C2730.3 440.083 2742.35 390.645 2719.37 352.849C2696.39 315.052 2646.96 303.004 2609.17 325.977C2571.39 348.95 2559.35 398.38 2582.32 436.165C2605.29 473.952 2654.73 486.022 2692.51 463.055ZM2618.1 340.664C2647.79 322.615 2686.64 332.09 2704.69 361.787C2722.75 391.483 2713.28 430.329 2683.59 448.378C2653.9 466.428 2615.06 456.952 2597 427.255C2578.95 397.56 2588.41 358.714 2618.1 340.664Z" fill="#1D6543"/>
<path d="M2636.37 673.718C2750.18 604.532 2785.72 462.198 2717.32 349.689C2714.85 345.633 2709.58 344.345 2705.52 346.811C2701.47 349.275 2700.18 354.554 2702.65 358.609C2766.04 462.891 2733.03 594.856 2627.46 659.034C2521.9 723.212 2386.83 689.14 2323.44 584.86C2320.97 580.803 2315.69 579.516 2311.64 581.982C2307.59 584.446 2306.3 589.725 2308.76 593.779C2377.08 706.15 2524.04 742.011 2636.37 673.718Z" fill="#1D6543"/>
<path d="M2565.85 558.523C2610.53 531.364 2624.77 472.924 2597.6 428.239C2595.14 424.183 2589.86 422.897 2585.81 425.361C2581.75 427.825 2580.47 433.104 2582.93 437.16C2605.17 473.744 2593.51 521.594 2556.94 543.829C2520.36 566.066 2472.51 554.393 2450.27 517.809C2447.81 513.753 2442.53 512.466 2438.48 514.932C2434.42 517.396 2433.13 522.675 2435.6 526.729C2462.77 571.414 2521.19 585.674 2565.85 558.523Z" fill="#1D6543"/>
<path d="M2593.86 596.887C2638.01 570.042 2665.08 523.126 2666.26 471.377L2666.29 468.773C2666.33 464.031 2662.52 460.148 2657.77 460.114C2653.04 460.065 2649.15 463.885 2649.11 468.638L2649.08 470.996C2648.03 516.857 2624.05 558.43 2584.92 582.219C2545.79 606.005 2493.48 608.055 2451.82 585.484C2447.64 583.232 2442.42 584.79 2440.17 588.947C2437.9 593.119 2439.46 598.33 2443.64 600.594C2490.66 626.053 2548.23 624.628 2593.86 596.887Z" fill="#1D6543"/>
<path d="M2620.27 640.332C2688.94 598.585 2726.22 520.155 2715.26 440.507C2714.62 435.799 2710.29 432.523 2705.58 433.167C2700.86 433.822 2697.6 438.154 2698.25 442.844C2708.27 515.7 2674.17 587.462 2611.36 625.648C2548.55 663.835 2470.79 661.093 2411.03 620.016C2407.11 617.325 2401.78 618.308 2399.08 622.226C2396.4 626.133 2397.39 631.482 2401.29 634.161C2466.61 679.072 2552.57 681.491 2620.27 640.332Z" fill="#1D6543"/>
</g>
<mask id="mask17_7077_15533" style="mask-type:luminance" maskUnits="userSpaceOnUse" x="2539" y="-122" width="566" height="493">
<path d="M2964.38 370.502L2539.22 156.414L2679.21 -121.595L3104.37 92.4931L2964.38 370.502Z" fill="white"/>
</mask>
<g mask="url(#mask17_7077_15533)">
<path d="M2964.91 191.161C2925.42 171.278 2877.11 187.238 2857.22 226.735C2837.33 266.229 2853.26 314.555 2892.76 334.444C2932.26 354.333 2980.56 338.368 3000.45 298.872C3020.34 259.376 3004.39 211.045 2964.91 191.161ZM2900.49 319.091C2869.46 303.465 2856.92 265.498 2872.55 234.457C2888.18 203.417 2926.15 190.875 2957.18 206.503C2988.22 222.129 3000.75 260.097 2985.12 291.137C2969.49 322.177 2931.52 334.719 2900.49 319.091Z" fill="#1D6543"/>
<path d="M2682.99 49.2156C2643.5 29.3264 2595.18 45.286 2575.29 84.7934C2555.39 124.301 2571.35 172.608 2610.84 192.497C2650.34 212.386 2698.65 196.422 2718.53 156.925C2738.42 117.429 2722.48 69.0992 2682.99 49.2156ZM2618.57 177.146C2587.54 161.518 2575.01 123.551 2590.64 92.51C2606.27 61.47 2644.24 48.9297 2675.27 64.5561C2706.3 80.1837 2718.83 118.151 2703.2 149.191C2687.57 180.232 2649.61 192.772 2618.57 177.146Z" fill="#1D6543"/>
<path d="M2891.42 -14.726C2772.47 -74.6245 2632.9 -29.4035 2573.69 88.1989C2571.55 92.4381 2573.25 97.596 2577.49 99.7302C2581.73 101.864 2586.89 100.16 2589.02 95.9211C2643.91 -13.0793 2773.34 -54.9535 2883.68 0.609197C2994.02 56.172 3036.64 188.786 2981.76 297.787C2979.62 302.026 2981.32 307.184 2985.56 309.318C2989.8 311.453 2994.96 309.749 2997.09 305.509C3056.24 188.053 3008.83 44.3991 2891.42 -14.726Z" fill="#1D6543"/>
<path d="M2831.05 106.088C2784.36 82.5747 2727.24 101.441 2703.72 148.147C2701.59 152.387 2703.29 157.546 2707.53 159.68C2711.77 161.814 2716.92 160.11 2719.06 155.871C2738.31 117.63 2785.08 102.183 2823.31 121.434C2861.54 140.686 2876.98 187.453 2857.72 225.694C2855.59 229.933 2857.29 235.092 2861.53 237.227C2865.76 239.359 2870.92 237.655 2873.06 233.417C2896.58 186.71 2877.73 129.596 2831.05 106.088Z" fill="#1D6543"/>
<path d="M2848.76 62.0099C2802.61 38.767 2748.48 40.6513 2703.95 67.0539L2701.73 68.4069C2697.68 70.8824 2696.41 76.1735 2698.9 80.2226C2701.36 84.262 2706.66 85.5386 2710.71 83.052L2712.73 81.8336C2752.19 58.4323 2800.15 56.7613 2841.05 77.3557C2881.95 97.951 2911.39 141.242 2914.31 188.539C2914.61 193.272 2918.69 196.877 2923.41 196.581C2928.15 196.297 2931.75 192.219 2931.45 187.473C2928.15 134.107 2896.46 86.0257 2848.76 62.0099Z" fill="#1D6543"/>
<path d="M2871.63 16.6136C2799.86 -19.5288 2713.58 -9.62475 2651.83 41.8508C2648.17 44.8896 2647.69 50.2953 2650.72 53.9475C2653.78 57.6111 2659.18 58.0807 2662.82 55.0475C2719.31 7.96518 2798.25 -1.11119 2863.9 31.9488C2929.55 65.0092 2968.41 132.425 2965.21 204.869C2965 209.613 2968.66 213.621 2973.41 213.836C2978.14 214.04 2982.16 210.368 2982.36 205.635C2985.87 126.443 2942.4 52.2478 2871.63 16.6136Z" fill="#1D6543"/>
</g>
<mask id="mask18_7077_15533" style="mask-type:luminance" maskUnits="userSpaceOnUse" x="1881" y="-122" width="566" height="493">
<path d="M2306.56 370.642L1881.41 156.555L2021.4 -121.454L2446.55 92.6337L2306.56 370.642Z" fill="white"/>
</mask>
<g mask="url(#mask18_7077_15533)">
<path d="M2307.1 191.279C2267.61 171.395 2219.29 187.354 2199.41 226.851C2179.52 266.345 2195.45 314.671 2234.95 334.56C2274.44 354.449 2322.75 338.484 2342.64 298.988C2362.52 259.492 2346.58 211.162 2307.1 191.279ZM2242.68 319.209C2211.64 303.581 2199.11 265.614 2214.74 234.573C2230.37 203.533 2268.34 190.993 2299.37 206.619C2330.4 222.245 2342.94 260.214 2327.3 291.254C2311.67 322.295 2273.71 334.835 2242.68 319.209Z" fill="#1D6543"/>
<path d="M2025.19 49.3366C1985.69 29.4476 1937.38 45.4072 1917.48 84.9143C1897.59 124.422 1913.54 172.729 1953.04 192.618C1992.54 212.507 2040.84 196.542 2060.73 157.046C2080.62 117.55 2064.67 69.22 2025.19 49.3366ZM1960.77 177.267C1929.74 161.641 1917.21 123.672 1932.84 92.6323C1948.47 61.5909 1986.43 49.0507 2017.46 64.677C2048.5 80.3045 2061.03 118.272 2045.4 149.313C2029.77 180.353 1991.8 192.893 1960.77 177.267Z" fill="#1D6543"/>
<path d="M2233.61 -14.6049C2114.66 -74.5034 1975.1 -29.2823 1915.88 88.319C1913.75 92.5582 1915.45 97.7175 1919.69 99.8516C1923.93 101.986 1929.08 100.282 1931.22 96.0426C1986.11 -12.9582 2115.54 -54.8324 2225.88 0.730399C2336.22 56.2932 2378.84 188.907 2323.95 297.909C2321.82 302.147 2323.52 307.306 2327.76 309.44C2332 311.574 2337.15 309.87 2339.29 305.631C2398.43 188.175 2351.03 44.5201 2233.61 -14.6049Z" fill="#1D6543"/>
<path d="M2173.24 106.209C2126.54 82.6958 2069.43 101.562 2045.91 148.268C2043.77 152.508 2045.48 157.667 2049.72 159.801C2053.95 161.935 2059.11 160.231 2061.25 155.992C2080.5 117.752 2127.27 102.304 2165.5 121.555C2203.73 140.807 2219.16 187.575 2199.91 225.815C2197.77 230.054 2199.48 235.213 2203.71 237.348C2207.95 239.482 2213.11 237.778 2215.24 233.539C2238.76 186.832 2219.92 129.717 2173.24 106.209Z" fill="#1D6543"/>
<path d="M2190.96 62.1269C2144.8 38.8843 2090.67 40.7685 2046.15 67.1709L2043.92 68.5239C2039.88 70.9994 2038.61 76.2905 2041.09 80.341C2043.56 84.379 2048.86 85.657 2052.91 83.169L2054.93 81.9506C2094.38 58.5494 2142.35 56.8784 2183.25 77.4727C2224.14 98.068 2253.59 141.359 2256.5 188.656C2256.8 193.389 2260.89 196.994 2265.61 196.698C2270.35 196.414 2273.95 192.336 2273.65 187.591C2270.35 134.224 2238.65 86.1427 2190.96 62.1269Z" fill="#1D6543"/>
<path d="M2213.82 16.7307C2142.05 -19.4116 2055.77 -9.50762 1994.01 41.9679C1990.36 45.0067 1989.87 50.4125 1992.91 54.0648C1995.97 57.7284 2001.37 58.198 2005.01 55.1648C2061.5 8.08232 2140.43 -0.993927 2206.09 32.0659C2271.74 65.1262 2310.59 132.542 2307.39 204.986C2307.18 209.73 2310.84 213.738 2315.6 213.953C2320.33 214.157 2324.34 210.485 2324.55 205.752C2328.05 126.559 2284.59 52.3651 2213.82 16.7307Z" fill="#1D6543"/>
</g>
<mask id="mask19_7077_15533" style="mask-type:luminance" maskUnits="userSpaceOnUse" x="4217" y="284" width="570" height="514">
<path d="M4217.62 531.591L4624.37 284.309L4786.07 550.279L4379.32 797.562L4217.62 531.591Z" fill="white"/>
</mask>
<g mask="url(#mask19_7077_15533)">
<path d="M4369.47 627.013C4407.26 604.047 4419.3 554.61 4396.32 516.825C4373.36 479.038 4323.93 466.961 4286.15 489.935C4248.36 512.907 4236.32 562.338 4259.3 600.123C4282.26 637.91 4331.7 649.978 4369.47 627.013ZM4295.07 504.622C4324.76 486.573 4363.6 496.048 4381.66 525.744C4399.71 555.441 4390.25 594.287 4360.55 612.337C4330.87 630.386 4292.03 620.91 4273.98 591.214C4255.91 561.518 4265.39 522.672 4295.07 504.622Z" fill="#1D6543"/>
<path d="M4583.05 673.698C4696.86 604.512 4732.4 462.178 4664 349.668C4661.53 345.614 4656.26 344.326 4652.21 346.79C4648.14 349.255 4646.86 354.533 4649.32 358.589C4712.72 462.87 4679.71 594.837 4574.14 659.015C4468.58 723.193 4333.51 689.12 4270.12 584.839C4267.65 580.784 4262.38 579.497 4258.31 581.961C4254.26 584.426 4252.98 589.704 4255.44 593.76C4323.75 706.131 4470.73 741.983 4583.06 673.691L4583.05 673.698Z" fill="#1D6543"/>
<path d="M4512.54 558.504C4557.21 531.345 4571.44 472.903 4544.29 428.22C4541.82 424.164 4536.55 422.876 4532.49 425.342C4528.43 427.807 4527.15 433.085 4529.61 437.14C4551.85 473.725 4540.19 521.575 4503.62 543.81C4467.04 566.045 4419.19 554.374 4396.95 517.789C4394.49 513.734 4389.21 512.447 4385.15 514.911C4381.1 517.377 4379.81 522.656 4382.28 526.71C4409.45 571.395 4467.89 585.65 4512.55 558.497L4512.54 558.504Z" fill="#1D6543"/>
<path d="M4540.54 596.873C4584.7 570.027 4611.76 523.112 4612.95 471.363L4612.98 468.757C4613.02 464.015 4609.2 460.133 4604.44 460.098C4599.72 460.05 4595.83 463.87 4595.8 468.622L4595.76 470.98C4594.72 516.843 4570.74 558.415 4531.61 582.203C4492.47 605.991 4440.16 608.041 4398.5 585.468C4394.33 583.216 4389.1 584.774 4386.85 588.933C4384.59 593.103 4386.14 598.316 4390.32 600.578C4437.34 626.038 4494.9 624.619 4540.53 596.88L4540.54 596.873Z" fill="#1D6543"/>
<path d="M4566.95 640.312C4635.61 598.567 4672.89 520.135 4661.93 440.487C4661.29 435.781 4656.96 432.504 4652.26 433.147C4647.53 433.803 4644.27 438.134 4644.92 442.824C4654.94 515.682 4620.84 587.443 4558.04 625.63C4495.22 663.816 4417.46 661.074 4357.71 619.997C4353.79 617.307 4348.45 618.289 4345.74 622.208C4343.07 626.114 4344.07 631.463 4347.97 634.143C4413.3 679.052 4499.26 681.465 4566.96 640.307L4566.95 640.312Z" fill="#1D6543"/>
</g>
<mask id="mask20_7077_15533" style="mask-type:luminance" maskUnits="userSpaceOnUse" x="3828" y="-122" width="566" height="493">
<path d="M4253.2 370.642L3828.04 156.555L3968.03 -121.454L4393.19 92.6337L4253.2 370.642Z" fill="white"/>
</mask>
<g mask="url(#mask20_7077_15533)">
<path d="M4253.72 191.279C4214.25 171.395 4165.93 187.354 4146.04 226.851C4126.16 266.347 4142.09 314.671 4181.58 334.56C4221.07 354.449 4269.38 338.484 4289.28 298.988C4309.16 259.492 4293.22 211.162 4253.72 191.279ZM4189.31 319.209C4158.28 303.583 4145.75 265.614 4161.38 234.574C4177 203.533 4214.97 190.993 4246.01 206.619C4277.04 222.246 4289.57 260.214 4273.94 291.255C4258.3 322.295 4220.35 334.835 4189.31 319.209Z" fill="#1D6543"/>
<path d="M3971.82 49.3366C3932.32 29.4476 3884.01 45.4072 3864.11 84.9143C3844.22 124.422 3860.18 172.729 3899.67 192.618C3939.17 212.507 3987.47 196.542 4007.37 157.046C4027.25 117.55 4011.31 69.22 3971.82 49.3366ZM3907.4 177.267C3876.37 161.641 3863.84 123.672 3879.47 92.6323C3895.09 61.5909 3933.06 49.0507 3964.1 64.677C3995.13 80.3045 4007.66 118.272 3992.03 149.313C3976.4 180.353 3938.43 192.893 3907.4 177.267Z" fill="#1D6543"/>
<path d="M4180.24 -14.6049C4061.29 -74.5034 3921.74 -29.2825 3862.52 88.3198C3860.38 92.559 3862.09 97.7183 3866.32 99.8511C3870.56 101.985 3875.71 100.281 3877.85 96.042C3932.74 -12.9582 4062.17 -54.8324 4172.51 0.730404C4282.86 56.2931 4325.47 188.907 4270.59 297.908C4268.45 302.147 4270.16 307.307 4274.39 309.439C4278.63 311.574 4283.79 309.87 4285.92 305.632C4345.07 188.175 4297.65 44.5201 4180.24 -14.6049Z" fill="#1D6543"/>
<path d="M4119.88 106.209C4073.19 82.6955 4016.07 101.563 3992.55 148.27C3990.41 152.509 3992.12 157.667 3996.35 159.801C4000.58 161.935 4005.75 160.231 4007.88 155.992C4027.14 117.753 4073.91 102.306 4112.14 121.556C4150.37 140.807 4165.8 187.576 4146.55 225.816C4144.41 230.054 4146.12 235.213 4150.35 237.347C4154.58 239.481 4159.75 237.777 4161.88 233.538C4185.4 186.832 4166.55 129.711 4119.87 106.203L4119.88 106.209Z" fill="#1D6543"/>
<path d="M4137.6 62.1464C4091.45 38.9038 4037.32 40.7881 3992.79 67.1904L3990.57 68.5434C3986.52 71.0189 3985.25 76.31 3987.74 80.3605C3990.19 84.3985 3995.49 85.6765 3999.55 83.1885L4001.57 81.9701C4041.02 58.5689 4088.99 56.898 4129.89 77.4922C4170.78 98.0875 4200.23 141.379 4203.14 188.675C4203.45 193.408 4207.52 197.013 4212.24 196.718C4216.99 196.433 4220.58 192.355 4220.29 187.611C4216.99 134.244 4185.31 86.1677 4137.62 62.1519L4137.6 62.1464Z" fill="#1D6543"/>
<path d="M4160.46 16.7307C4088.68 -19.4116 4002.41 -9.50763 3940.65 41.9679C3937 45.0067 3936.51 50.4124 3939.55 54.0648C3942.61 57.7284 3948 58.198 3951.64 55.1646C4008.14 8.08231 4087.07 -0.99393 4152.72 32.0659C4218.38 65.1256 4257.22 132.542 4254.03 204.987C4253.83 209.731 4257.47 213.738 4262.23 213.954C4266.97 214.158 4270.98 210.484 4271.18 205.753C4274.7 126.56 4231.22 52.3594 4160.45 16.7251L4160.46 16.7307Z" fill="#1D6543"/>
</g>
<mask id="mask21_7077_15533" style="mask-type:luminance" maskUnits="userSpaceOnUse" x="3244" y="690" width="569" height="514">
<path d="M3244.29 955.999L3651.03 1203.29L3812.73 937.317L3405.98 690.031L3244.29 955.999Z" fill="white"/>
</mask>
<g mask="url(#mask21_7077_15533)">
<path d="M3396.14 860.592C3433.91 883.559 3445.97 932.994 3422.99 970.78C3400.03 1008.57 3350.6 1020.64 3312.8 997.669C3275.01 974.697 3262.98 925.267 3285.95 887.481C3308.93 849.695 3358.36 837.625 3396.14 860.592ZM3321.74 982.983C3351.42 1001.03 3390.27 991.557 3408.32 961.86C3426.38 932.163 3416.91 893.318 3387.22 875.269C3357.52 857.219 3318.68 866.695 3300.63 896.39C3282.58 926.087 3292.04 964.932 3321.74 982.983Z" fill="#1D6543"/>
<path d="M3665.84 1024.56C3703.63 1047.53 3715.67 1096.97 3692.7 1134.76C3669.73 1172.56 3620.3 1184.61 3582.5 1161.63C3544.72 1138.66 3532.69 1089.23 3555.65 1051.45C3578.63 1013.66 3628.06 1001.59 3665.84 1024.56ZM3591.44 1146.95C3621.12 1165 3659.97 1155.52 3678.03 1125.83C3696.08 1096.13 3686.62 1057.28 3656.92 1039.23C3627.23 1021.18 3588.39 1030.66 3570.33 1060.36C3552.28 1090.05 3561.74 1128.91 3591.43 1146.96L3591.44 1146.95Z" fill="#1D6543"/>
<path d="M3609.72 813.9C3723.52 883.086 3759.07 1025.42 3690.66 1137.93C3688.2 1141.98 3682.91 1143.27 3678.86 1140.81C3674.81 1138.34 3673.52 1133.06 3675.99 1129.01C3739.39 1024.73 3706.37 892.761 3600.81 828.584C3495.24 764.406 3360.18 798.478 3296.78 902.759C3294.31 906.814 3289.03 908.101 3284.98 905.637C3280.93 903.172 3279.64 897.894 3282.11 893.838C3350.42 781.469 3497.4 745.615 3609.73 813.907L3609.72 813.9Z" fill="#1D6543"/>
<path d="M3539.2 929.082C3583.88 956.242 3598.12 1014.68 3570.95 1059.37C3568.49 1063.42 3563.2 1064.71 3559.15 1062.24C3555.1 1059.78 3553.81 1054.5 3556.28 1050.45C3578.52 1013.86 3566.85 966.012 3530.29 943.776C3493.71 921.54 3445.87 933.213 3423.62 969.796C3421.15 973.852 3415.88 975.139 3411.83 972.674C3407.77 970.21 3406.48 964.931 3408.95 960.875C3436.11 916.192 3494.56 901.936 3539.21 929.089L3539.2 929.082Z" fill="#1D6543"/>
<path d="M3567.19 890.714C3611.36 917.561 3638.42 964.475 3639.6 1016.22L3639.63 1018.83C3639.67 1023.57 3635.85 1027.45 3631.11 1027.49C3626.37 1027.54 3622.49 1023.72 3622.45 1018.97L3622.42 1016.61C3621.36 970.745 3597.39 929.173 3558.25 905.384C3519.14 881.596 3466.82 879.547 3425.15 902.119C3420.98 904.371 3415.76 902.813 3413.51 898.654C3411.25 894.485 3412.79 889.271 3416.98 887.009C3463.99 861.55 3521.55 862.969 3567.18 890.709L3567.19 890.714Z" fill="#1D6543"/>
<path d="M3593.6 847.28C3662.27 889.027 3699.56 967.457 3688.6 1047.1C3687.96 1051.81 3683.63 1055.09 3678.91 1054.45C3674.19 1053.79 3670.93 1049.46 3671.58 1044.77C3681.6 971.91 3647.51 900.149 3584.69 861.964C3521.88 823.777 3444.12 826.519 3384.36 867.596C3380.44 870.287 3375.11 869.304 3372.41 865.384C3369.73 861.478 3370.72 856.13 3374.63 853.449C3439.94 808.54 3525.91 806.127 3593.61 847.287L3593.6 847.28Z" fill="#1D6543"/>
</g>
<mask id="mask22_7077_15533" style="mask-type:luminance" maskUnits="userSpaceOnUse" x="2270" y="1095" width="570" height="515">
<path d="M2270.95 1343.22L2677.7 1095.93L2839.39 1361.9L2432.65 1609.19L2270.95 1343.22Z" fill="white"/>
</mask>
<g mask="url(#mask22_7077_15533)">
<path d="M2692.51 1274.68C2730.3 1251.71 2742.35 1202.27 2719.37 1164.48C2696.39 1126.68 2646.96 1114.63 2609.18 1137.61C2571.39 1160.58 2559.35 1210.01 2582.32 1247.79C2605.3 1285.58 2654.74 1297.65 2692.51 1274.68ZM2618.1 1152.29C2647.79 1134.24 2686.64 1143.72 2704.69 1173.42C2722.74 1203.11 2713.28 1241.96 2683.59 1260.01C2653.9 1278.06 2615.06 1268.58 2597 1238.88C2578.95 1209.19 2588.42 1170.34 2618.1 1152.29Z" fill="#1D6543"/>
</g>
<mask id="mask23_7077_15533" style="mask-type:luminance" maskUnits="userSpaceOnUse" x="2539" y="690" width="566" height="493">
<path d="M2964.38 1182.13L2539.22 968.043L2679.21 690.034L3104.37 904.122L2964.38 1182.13Z" fill="white"/>
</mask>
<g mask="url(#mask23_7077_15533)">
<path d="M2964.91 1002.77C2925.42 982.887 2877.11 998.847 2857.22 1038.34C2837.33 1077.84 2853.26 1126.16 2892.76 1146.05C2932.26 1165.94 2980.56 1149.98 3000.45 1110.48C3020.34 1070.98 3004.39 1022.65 2964.91 1002.77ZM2900.49 1130.7C2869.46 1115.07 2856.92 1077.11 2872.55 1046.07C2888.18 1015.03 2926.15 1002.48 2957.18 1018.11C2988.21 1033.74 3000.75 1071.71 2985.12 1102.75C2969.49 1133.79 2931.52 1146.33 2900.49 1130.7Z" fill="#1D6543"/>
<path d="M2682.99 860.829C2643.5 840.94 2595.18 856.899 2575.29 896.406C2555.39 935.914 2571.35 984.221 2610.84 1004.11C2650.34 1024 2698.65 1008.03 2718.53 968.538C2738.42 929.042 2722.48 880.712 2682.99 860.829ZM2618.57 988.759C2587.54 973.131 2575.01 935.164 2590.64 904.124C2606.27 873.083 2644.24 860.543 2675.27 876.169C2706.3 891.797 2718.83 929.764 2703.2 960.804C2687.57 991.845 2649.61 1004.39 2618.57 988.759Z" fill="#1D6543"/>
<path d="M2891.42 796.883C2772.46 736.985 2632.9 782.206 2573.69 899.808C2571.55 904.048 2573.25 909.205 2577.49 911.34C2581.73 913.474 2586.89 911.77 2589.02 907.531C2643.91 798.53 2773.34 756.656 2883.68 812.218C2994.02 867.782 3036.64 1000.4 2981.76 1109.4C2979.62 1113.64 2981.32 1118.8 2985.56 1120.93C2989.8 1123.06 2994.96 1121.36 2997.09 1117.12C3056.24 999.663 3008.83 856.009 2891.42 796.883Z" fill="#1D6543"/>
<path d="M2831.04 917.701C2784.35 894.188 2727.23 913.054 2703.71 959.761C2701.58 964 2703.28 969.159 2707.52 971.293C2711.76 973.427 2716.92 971.723 2719.05 967.484C2738.31 929.244 2785.07 913.797 2823.3 933.047C2861.53 952.299 2876.97 999.067 2857.71 1037.31C2855.58 1041.55 2857.28 1046.71 2861.52 1048.84C2865.76 1050.97 2870.92 1049.27 2873.05 1045.03C2896.57 998.323 2877.73 941.209 2831.04 917.701Z" fill="#1D6543"/>
<path d="M2848.76 873.635C2802.61 850.392 2748.48 852.276 2703.95 878.679L2701.73 880.032C2697.68 882.507 2696.41 887.798 2698.9 891.848C2701.36 895.887 2706.66 897.163 2710.71 894.677L2712.73 893.459C2752.19 870.057 2800.15 868.387 2841.05 888.981C2881.95 909.576 2911.39 952.867 2914.31 1000.16C2914.61 1004.9 2918.69 1008.5 2923.41 1008.21C2928.15 1007.92 2931.75 1003.84 2931.45 999.098C2928.15 945.732 2896.46 897.651 2848.76 873.635Z" fill="#1D6543"/>
<path d="M2871.63 828.223C2799.86 792.081 2713.58 801.984 2651.83 853.46C2648.17 856.499 2647.69 861.905 2650.72 865.557C2653.78 869.221 2659.18 869.69 2662.82 866.658C2719.31 819.575 2798.25 810.499 2863.9 843.558C2929.55 876.618 2968.41 944.035 2965.21 1016.48C2965 1021.22 2968.66 1025.23 2973.41 1025.45C2978.14 1025.65 2982.16 1021.98 2982.36 1017.24C2985.87 938.052 2942.4 863.858 2871.63 828.223Z" fill="#1D6543"/>
</g>
<mask id="mask24_7077_15533" style="mask-type:luminance" maskUnits="userSpaceOnUse" x="1881" y="690" width="566" height="493">
<path d="M2306.57 1182.27L1881.41 968.18L2021.41 690.171L2446.56 904.259L2306.57 1182.27Z" fill="white"/>
</mask>
<g mask="url(#mask24_7077_15533)">
<path d="M2307.11 1002.91C2267.62 983.024 2219.31 998.983 2199.42 1038.48C2179.53 1077.98 2195.46 1126.3 2234.96 1146.19C2274.46 1166.08 2322.76 1150.11 2342.65 1110.62C2362.54 1071.12 2346.6 1022.79 2307.11 1002.91ZM2242.69 1130.84C2211.66 1115.21 2199.13 1077.24 2214.76 1046.2C2230.39 1015.16 2268.35 1002.62 2299.39 1018.25C2330.42 1033.87 2342.95 1071.84 2327.32 1102.88C2311.69 1133.92 2273.72 1146.46 2242.69 1130.84Z" fill="#1D6543"/>
<path d="M2025.2 860.966C1985.7 841.077 1937.38 857.036 1917.49 896.543C1897.6 936.05 1913.55 984.358 1953.05 1004.25C1992.54 1024.14 2040.85 1008.17 2060.74 968.675C2080.63 929.179 2064.68 880.849 2025.2 860.966ZM1960.78 988.896C1929.74 973.27 1917.21 935.301 1932.84 904.261C1948.47 873.22 1986.44 860.68 2017.47 876.306C2048.5 891.933 2061.04 929.9 2045.41 960.942C2029.78 991.982 1991.81 1004.52 1960.78 988.896Z" fill="#1D6543"/>
<path d="M2233.62 797.02C2114.67 737.121 1975.1 782.343 1915.89 899.945C1913.75 904.184 1915.45 909.344 1919.69 911.476C1923.93 913.61 1929.09 911.906 1931.22 907.667C1986.11 798.667 2115.54 756.793 2225.88 812.356C2336.22 867.918 2378.84 1000.53 2323.96 1109.53C2321.82 1113.77 2323.52 1118.93 2327.76 1121.07C2332 1123.2 2337.16 1121.49 2339.29 1117.26C2398.44 999.801 2351.03 856.146 2233.62 797.02Z" fill="#1D6543"/>
<path d="M2173.25 917.838C2126.55 894.325 2069.44 913.191 2045.92 959.897C2043.78 964.137 2045.49 969.296 2049.72 971.43C2053.96 973.564 2059.12 971.86 2061.25 967.621C2080.51 929.38 2127.27 913.933 2165.5 933.184C2203.74 952.436 2219.17 999.203 2199.91 1037.44C2197.78 1041.68 2199.48 1046.84 2203.72 1048.98C2207.96 1051.11 2213.12 1049.41 2215.25 1045.17C2238.77 998.461 2219.93 941.346 2173.25 917.838Z" fill="#1D6543"/>
<path d="M2190.97 873.775C2144.81 850.533 2090.68 852.417 2046.16 878.82L2043.93 880.172C2039.89 882.648 2038.61 887.939 2041.1 891.99C2043.56 896.028 2048.86 897.306 2052.91 894.818L2054.93 893.599C2094.39 870.198 2142.35 868.527 2183.25 889.121C2224.15 909.717 2253.59 953.008 2256.51 1000.3C2256.81 1005.04 2260.9 1008.64 2265.61 1008.35C2270.35 1008.06 2273.95 1003.98 2273.66 999.24C2270.36 945.873 2238.66 897.791 2190.97 873.775Z" fill="#1D6543"/>
<path d="M2213.83 828.36C2142.05 792.217 2055.78 802.121 1994.02 853.597C1990.37 856.636 1989.88 862.042 1992.92 865.694C1995.98 869.357 2001.38 869.826 2005.01 866.793C2061.51 819.711 2140.44 810.634 2206.09 843.695C2271.75 876.755 2310.6 944.17 2307.4 1016.61C2307.19 1021.36 2310.85 1025.37 2315.61 1025.58C2320.34 1025.79 2324.35 1022.11 2324.56 1017.38C2328.06 938.188 2284.6 863.994 2213.83 828.36Z" fill="#1D6543"/>
</g>
<mask id="mask25_7077_15533" style="mask-type:luminance" maskUnits="userSpaceOnUse" x="3828" y="690" width="566" height="493">
<path d="M4253.2 1182.27L3828.04 968.18L3968.03 690.171L4393.19 904.259L4253.2 1182.27Z" fill="white"/>
</mask>
<g mask="url(#mask25_7077_15533)">
<path d="M4253.72 1002.91C4214.25 983.024 4165.93 998.983 4146.04 1038.48C4126.16 1077.98 4142.09 1126.3 4181.58 1146.19C4221.07 1166.08 4269.38 1150.11 4289.28 1110.62C4309.16 1071.12 4293.22 1022.79 4253.72 1002.91ZM4189.31 1130.84C4158.28 1115.21 4145.75 1077.24 4161.38 1046.2C4177 1015.16 4214.97 1002.62 4246.01 1018.25C4277.04 1033.88 4289.57 1071.84 4273.94 1102.88C4258.3 1133.92 4220.35 1146.46 4189.31 1130.84Z" fill="#1D6543"/>
<path d="M3971.82 860.966C3932.32 841.077 3884.01 857.036 3864.11 896.543C3844.22 936.05 3860.18 984.358 3899.67 1004.25C3939.17 1024.14 3987.47 1008.17 4007.37 968.675C4027.25 929.179 4011.31 880.849 3971.82 860.966ZM3907.4 988.896C3876.37 973.268 3863.84 935.301 3879.47 904.26C3895.09 873.22 3933.06 860.68 3964.1 876.306C3995.13 891.933 4007.66 929.9 3992.03 960.94C3976.4 991.982 3938.43 1004.52 3907.4 988.896Z" fill="#1D6543"/>
<path d="M4180.24 797.02C4061.29 737.121 3921.74 782.343 3862.52 899.945C3860.38 904.184 3862.09 909.342 3866.32 911.476C3870.56 913.611 3875.71 911.906 3877.85 907.667C3932.74 798.667 4062.17 756.793 4172.51 812.355C4282.86 867.918 4325.47 1000.53 4270.59 1109.53C4268.45 1113.77 4270.16 1118.93 4274.39 1121.06C4278.63 1123.2 4283.79 1121.49 4285.92 1117.26C4345.07 999.799 4297.65 856.146 4180.24 797.02Z" fill="#1D6543"/>
<path d="M4119.88 917.838C4073.19 894.325 4016.07 913.191 3992.55 959.897C3990.41 964.137 3992.12 969.296 3996.35 971.43C4000.58 973.564 4005.75 971.86 4007.88 967.621C4027.14 929.38 4073.91 913.933 4112.14 933.184C4150.37 952.436 4165.8 999.203 4146.55 1037.44C4144.41 1041.68 4146.12 1046.84 4150.35 1048.98C4154.58 1051.11 4159.75 1049.41 4161.88 1045.17C4185.4 998.46 4166.55 941.341 4119.87 917.833L4119.88 917.838Z" fill="#1D6543"/>
<path d="M4137.6 873.775C4091.45 850.533 4037.32 852.417 3992.79 878.82L3990.57 880.172C3986.52 882.648 3985.25 887.939 3987.74 891.988C3990.19 896.028 3995.49 897.304 3999.55 894.818L4001.57 893.599C4041.02 870.198 4088.99 868.527 4129.89 889.121C4170.78 909.717 4200.23 953.008 4203.14 1000.3C4203.45 1005.04 4207.52 1008.64 4212.24 1008.35C4216.99 1008.06 4220.58 1003.98 4220.29 999.238C4216.99 945.873 4185.31 897.797 4137.62 873.781L4137.6 873.775Z" fill="#1D6543"/>
<path d="M4160.46 828.36C4088.68 792.217 4002.41 802.121 3940.65 853.597C3937 856.636 3936.51 862.042 3939.55 865.694C3942.61 869.358 3948 869.826 3951.64 866.793C4008.14 819.712 4087.07 810.636 4152.72 843.695C4218.38 876.755 4257.22 944.172 4254.03 1016.62C4253.83 1021.36 4257.47 1025.37 4262.23 1025.58C4266.97 1025.79 4270.98 1022.11 4271.18 1017.38C4274.7 938.188 4231.22 863.989 4160.45 828.354L4160.46 828.36Z" fill="#1D6543"/>
</g>
<mask id="mask26_7077_15533" style="mask-type:luminance" maskUnits="userSpaceOnUse" x="1595" y="295" width="567" height="493">
<path d="M2021.11 295.436L1595.96 509.523L1735.95 787.532L2161.11 573.445L2021.11 295.436Z" fill="white"/>
</mask>
<g mask="url(#mask26_7077_15533)">
<path d="M2021.66 474.798C1982.17 494.682 1933.86 478.721 1913.97 439.225C1894.08 399.73 1910.01 351.404 1949.51 331.515C1989.01 311.626 2037.31 327.591 2057.2 367.087C2077.09 406.584 2061.14 454.915 2021.66 474.798ZM1957.24 346.868C1926.21 362.494 1913.67 400.461 1929.3 431.503C1944.93 462.543 1982.9 475.084 2013.93 459.457C2044.97 443.831 2057.5 405.862 2041.87 374.822C2026.24 343.782 1988.27 331.241 1957.24 346.868Z" fill="#1D6543"/>
<path d="M1948.16 680.683C1829.21 740.582 1689.65 695.362 1630.43 577.76C1628.3 573.521 1630 568.361 1634.24 566.227C1638.48 564.093 1643.64 565.797 1645.77 570.036C1700.66 679.038 1830.09 720.911 1940.43 665.349C2050.77 609.786 2093.39 477.172 2038.5 368.172C2036.37 363.932 2038.07 358.773 2042.31 356.639C2046.55 354.505 2051.71 356.209 2053.84 360.448C2112.98 477.904 2065.58 621.559 1948.16 680.683Z" fill="#1D6543"/>
<path d="M1887.79 559.874C1841.09 583.388 1783.98 564.521 1760.46 517.815C1758.33 513.576 1760.03 508.416 1764.27 506.282C1768.5 504.148 1773.66 505.852 1775.8 510.091C1795.05 548.332 1841.82 563.779 1880.05 544.528C1918.28 525.276 1933.71 478.509 1914.46 440.268C1912.32 436.029 1914.03 430.87 1918.27 428.736C1922.5 426.603 1927.66 428.307 1929.8 432.545C1953.32 479.253 1934.47 536.366 1887.79 559.874Z" fill="#1D6543"/>
<path d="M1905.51 603.952C1859.36 627.193 1805.23 625.309 1760.7 598.908L1758.48 597.555C1754.43 595.078 1753.16 589.787 1755.65 585.738C1758.11 581.7 1763.41 580.422 1767.46 582.91L1769.48 584.128C1808.94 607.529 1856.9 609.2 1897.8 588.605C1938.7 568.011 1968.14 524.718 1971.06 477.423C1971.36 472.688 1975.44 469.083 1980.16 469.38C1984.9 469.665 1988.5 473.742 1988.2 478.487C1984.9 531.853 1953.21 579.936 1905.51 603.952Z" fill="#1D6543"/>
<path d="M1928.38 649.347C1856.6 685.489 1770.33 675.586 1708.57 624.11C1704.92 621.071 1704.43 615.666 1707.47 612.014C1710.53 608.349 1715.92 607.88 1719.56 610.914C1776.06 657.996 1854.99 667.073 1920.64 634.012C1986.3 600.952 2025.15 533.536 2021.95 461.092C2021.74 456.348 2025.4 452.34 2030.15 452.125C2034.89 451.921 2038.9 455.593 2039.1 460.326C2042.61 539.519 1999.14 613.714 1928.38 649.347Z" fill="#1D6543"/>
</g>
<mask id="mask27_7077_15533" style="mask-type:luminance" maskUnits="userSpaceOnUse" x="1595" y="1107" width="567" height="493">
<path d="M2021.11 1107.06L1595.96 1321.15L1735.95 1599.16L2161.11 1385.07L2021.11 1107.06Z" fill="white"/>
</mask>
<g mask="url(#mask27_7077_15533)">
<path d="M2021.66 1286.42C1982.17 1306.31 1933.86 1290.35 1913.97 1250.85C1894.08 1211.35 1910.01 1163.03 1949.51 1143.14C1989.01 1123.25 2037.31 1139.22 2057.2 1178.71C2077.09 1218.21 2061.14 1266.54 2021.66 1286.42ZM1957.24 1158.49C1926.21 1174.12 1913.67 1212.09 1929.3 1243.13C1944.93 1274.17 1982.9 1286.71 2013.93 1271.08C2044.97 1255.45 2057.5 1217.49 2041.87 1186.45C2026.24 1155.41 1988.27 1142.87 1957.24 1158.49Z" fill="#1D6543"/>
</g>
</g>
</g>
<g clip-path="url(#clip5_7077_15533)">
<mask id="mask28_7077_15533" style="mask-type:alpha" maskUnits="userSpaceOnUse" x="4481" y="-79" width="2638" height="2477">
<path d="M7118.06 -78.2266H4481.55V2397.88H7118.06V-78.2266Z" fill="#D3DE6E"/>
</mask>
<g mask="url(#mask28_7077_15533)">
<path d="M7328.59 -78.207H4240.97V2397.9H7328.59V-78.207Z" fill="#164A31"/>
<mask id="mask29_7077_15533" style="mask-type:luminance" maskUnits="userSpaceOnUse" x="5880" y="-122" width="570" height="514">
<path d="M5880.77 144.386L6287.52 391.672L6449.21 125.704L6042.47 -121.582L5880.77 144.386Z" fill="white"/>
</mask>
<g mask="url(#mask29_7077_15533)">
<path d="M6032.63 48.9785C6070.4 71.945 6082.46 121.381 6059.48 159.168C6036.52 196.953 5987.09 209.029 5949.29 186.057C5911.5 163.083 5899.47 113.653 5922.44 75.8678C5945.42 38.0821 5994.84 26.0122 6032.63 48.9785ZM5958.22 171.369C5987.91 189.419 6026.76 179.943 6044.81 150.246C6062.87 120.55 6053.4 81.7042 6023.71 63.6553C5994.01 45.6055 5955.17 55.0811 5937.12 84.7778C5919.07 114.475 5928.53 153.32 5958.22 171.369Z" fill="#1D6543"/>
<path d="M6302.33 212.948C6340.12 235.92 6352.16 285.356 6329.18 323.154C6306.22 360.95 6256.79 372.998 6218.99 350.025C6181.21 327.053 6169.18 277.623 6192.14 239.836C6215.12 202.051 6264.55 189.982 6302.33 212.948ZM6227.93 335.338C6257.61 353.387 6296.46 343.911 6314.52 314.216C6332.57 284.519 6323.11 245.674 6293.41 227.623C6263.71 209.574 6224.88 219.049 6206.82 248.746C6188.77 278.443 6198.23 317.299 6227.91 335.348L6227.93 335.338Z" fill="#1D6543"/>
<path d="M6246.2 2.29148C6360 71.4774 6395.54 213.811 6327.14 326.321C6324.69 330.375 6319.4 331.663 6315.35 329.199C6311.3 326.734 6310 321.456 6312.47 317.4C6375.88 213.119 6342.85 81.152 6237.29 16.9746C6131.72 -47.2034 5996.66 -13.1312 5933.26 91.1499C5930.79 95.2046 5925.52 96.4923 5921.47 94.0279C5917.42 91.5634 5916.12 86.2849 5918.59 82.2288C5986.91 -30.141 6133.87 -65.9946 6246.22 2.298L6246.2 2.29148Z" fill="#1D6543"/>
<path d="M6175.68 117.488C6220.36 144.648 6234.6 203.088 6207.43 247.773C6204.97 251.828 6199.69 253.115 6195.64 250.651C6191.58 248.185 6190.29 242.908 6192.76 238.852C6215.01 202.268 6203.34 154.419 6166.77 132.182C6130.19 109.946 6082.35 121.619 6060.11 158.203C6057.64 162.257 6052.36 163.545 6048.31 161.081C6044.24 158.616 6042.97 153.338 6045.42 149.282C6072.59 104.598 6131.03 90.3418 6175.69 117.495L6175.68 117.488Z" fill="#1D6543"/>
<path d="M6203.69 79.1055C6247.84 105.952 6274.91 152.867 6276.09 204.616L6276.12 207.222C6276.16 211.963 6272.35 215.846 6267.6 215.88C6262.87 215.929 6258.98 212.109 6258.94 207.356L6258.91 204.999C6257.86 159.136 6233.88 117.564 6194.75 93.7755C6155.63 69.9873 6103.32 67.9378 6061.65 90.5104C6057.47 92.7626 6052.25 91.2042 6050 87.0455C6047.73 82.8757 6049.28 77.6623 6053.47 75.4005C6100.49 49.9409 6158.05 51.3596 6203.67 79.0985L6203.69 79.1055Z" fill="#1D6543"/>
<path d="M6230.09 35.6703C6298.76 77.417 6336.05 155.847 6325.08 235.495C6324.43 240.202 6320.12 243.478 6315.4 242.835C6310.68 242.181 6307.42 237.848 6308.07 233.158C6318.09 160.3 6283.98 88.5388 6221.18 50.3532C6158.37 12.1673 6080.61 14.9093 6020.84 55.9858C6016.93 58.6763 6011.59 57.6941 6008.9 53.775C6006.22 49.8688 6007.2 44.5196 6011.12 41.8398C6076.43 -3.06971 6162.4 -5.48266 6230.1 35.6768L6230.09 35.6703Z" fill="#1D6543"/>
</g>
<mask id="mask30_7077_15533" style="mask-type:luminance" maskUnits="userSpaceOnUse" x="6149" y="305" width="566" height="493">
<path d="M6574.21 305.479L6149.05 519.566L6289.05 797.575L6714.2 583.488L6574.21 305.479Z" fill="white"/>
</mask>
<g mask="url(#mask30_7077_15533)">
<path d="M6292.82 626.783C6253.33 646.672 6205.01 630.711 6185.11 591.205C6165.23 551.698 6181.17 503.389 6220.68 483.5C6260.17 463.611 6308.48 479.577 6328.36 519.072C6348.26 558.568 6332.3 606.899 6292.82 626.783ZM6228.41 498.852C6197.37 514.479 6184.84 552.447 6200.48 583.487C6216.1 614.527 6254.07 627.068 6285.09 611.441C6316.13 595.815 6328.67 557.846 6313.04 526.806C6297.4 495.766 6259.44 483.214 6228.39 498.841L6228.41 498.852Z" fill="#1D6543"/>
<path d="M6501.25 690.723C6382.28 750.621 6242.73 705.4 6183.5 587.798C6181.38 583.56 6183.07 578.401 6187.32 576.266C6191.55 574.132 6196.72 575.836 6198.85 580.075C6253.73 689.075 6383.16 730.95 6493.5 675.388C6603.85 619.824 6646.48 487.211 6591.58 378.209C6589.44 373.97 6591.15 368.812 6595.38 366.678C6599.63 364.544 6604.79 366.248 6606.91 370.487C6666.07 487.943 6618.65 631.604 6501.23 690.728L6501.25 690.723Z" fill="#1D6543"/>
<path d="M6440.87 569.914C6394.17 593.427 6337.06 574.561 6313.54 527.853C6311.4 523.616 6313.11 518.456 6317.34 516.322C6321.59 514.188 6326.75 515.892 6328.87 520.131C6348.13 558.372 6394.9 573.819 6433.13 554.567C6471.35 535.316 6486.8 488.547 6467.54 450.308C6465.4 446.069 6467.11 440.91 6471.34 438.776C6475.59 436.641 6480.75 438.345 6482.87 442.585C6506.39 489.291 6487.55 546.412 6440.85 569.92L6440.87 569.914Z" fill="#1D6543"/>
<path d="M6458.59 613.995C6412.44 637.238 6358.31 635.353 6313.79 608.951L6311.56 607.599C6307.52 605.122 6306.25 599.831 6308.73 595.782C6311.2 591.744 6316.5 590.466 6320.55 592.953L6322.56 594.171C6362.02 617.572 6409.99 619.244 6450.88 598.649C6491.79 578.054 6521.23 534.762 6524.15 487.466C6524.44 482.733 6528.53 479.128 6533.25 479.423C6537.98 479.708 6541.59 483.786 6541.28 488.532C6538 541.897 6506.3 589.973 6458.61 613.989L6458.59 613.995Z" fill="#1D6543"/>
<path d="M6481.47 659.387C6409.7 695.53 6323.41 685.626 6261.65 634.15C6258 631.111 6257.51 625.705 6260.55 622.053C6263.62 618.39 6269.02 617.921 6272.65 620.954C6329.14 668.036 6408.07 677.112 6473.74 644.053C6539.38 610.992 6578.24 543.575 6575.03 471.131C6574.82 466.388 6578.49 462.381 6583.25 462.164C6587.98 461.962 6591.99 465.633 6592.2 470.367C6595.69 549.559 6552.22 623.758 6481.45 659.393L6481.47 659.387Z" fill="#1D6543"/>
</g>
<mask id="mask31_7077_15533" style="mask-type:luminance" maskUnits="userSpaceOnUse" x="5491" y="305" width="566" height="493">
<path d="M5916.36 305.342L5491.2 519.43L5631.19 797.439L6056.35 583.351L5916.36 305.342Z" fill="white"/>
</mask>
<g mask="url(#mask31_7077_15533)">
<path d="M5916.88 484.7C5877.39 504.584 5829.07 488.625 5809.19 449.128C5789.3 409.632 5805.23 361.306 5844.73 341.418C5884.22 321.529 5932.53 337.495 5952.42 376.991C5972.3 416.486 5956.36 464.806 5916.87 484.689L5916.88 484.7ZM5852.46 356.77C5821.42 372.396 5808.89 410.365 5824.52 441.405C5840.15 472.446 5878.11 484.986 5909.15 469.36C5940.18 453.733 5952.71 415.766 5937.09 384.724C5921.46 353.684 5883.5 341.144 5852.46 356.77Z" fill="#1D6543"/>
<path d="M5634.97 626.646C5595.47 646.535 5547.16 630.576 5527.26 591.068C5507.37 551.561 5523.32 503.252 5562.82 483.363C5602.32 463.474 5650.62 479.44 5670.51 518.936C5690.4 558.431 5674.46 606.762 5634.97 626.646ZM5570.55 498.716C5539.52 514.342 5526.99 552.31 5542.62 583.35C5558.25 614.392 5596.21 626.932 5627.24 611.305C5658.28 595.678 5670.81 557.711 5655.18 526.669C5639.55 495.63 5601.58 483.088 5570.55 498.716Z" fill="#1D6543"/>
<path d="M5843.39 690.587C5724.44 750.484 5584.88 705.264 5525.66 587.662C5523.53 583.423 5525.23 578.264 5529.47 576.13C5533.71 573.997 5538.87 575.701 5541 579.939C5595.89 688.94 5725.32 730.815 5835.66 675.251C5946 619.689 5988.62 487.074 5933.74 378.074C5931.6 373.835 5933.31 368.675 5937.54 366.541C5941.78 364.407 5946.93 366.111 5949.07 370.35C6008.21 487.807 5960.81 631.461 5843.39 690.587Z" fill="#1D6543"/>
<path d="M5783.02 569.776C5736.33 593.289 5679.21 574.423 5655.69 527.717C5653.56 523.478 5655.26 518.318 5659.5 516.185C5663.73 514.051 5668.89 515.755 5671.03 519.993C5690.28 558.234 5737.05 573.681 5775.28 554.43C5813.51 535.179 5828.95 488.411 5809.69 450.17C5807.56 445.931 5809.26 440.773 5813.5 438.639C5817.73 436.505 5822.89 438.209 5825.03 442.448C5848.55 489.154 5829.71 546.269 5783.02 569.776Z" fill="#1D6543"/>
<path d="M5800.74 613.858C5754.59 637.101 5700.46 635.216 5655.94 608.814L5653.71 607.461C5649.66 604.985 5648.39 599.693 5650.88 595.644C5653.34 591.606 5658.64 590.328 5662.69 592.816L5664.71 594.034C5704.17 617.435 5752.13 619.106 5793.03 598.512C5833.93 577.917 5863.37 534.625 5866.29 487.329C5866.59 482.595 5870.68 478.991 5875.4 479.286C5880.13 479.571 5883.72 483.649 5883.43 488.394C5880.13 541.761 5848.44 589.842 5800.74 613.858Z" fill="#1D6543"/>
<path d="M5823.61 659.251C5751.83 695.393 5665.55 685.488 5603.79 634.012C5600.14 630.974 5599.65 625.569 5602.69 621.916C5605.75 618.253 5611.15 617.783 5614.79 620.816C5671.28 667.898 5750.21 676.975 5815.87 643.915C5881.53 610.856 5920.38 543.439 5917.17 470.995C5916.97 466.25 5920.63 462.243 5925.38 462.028C5930.11 461.824 5934.13 465.497 5934.33 470.229C5937.84 549.421 5894.37 623.616 5823.61 659.251Z" fill="#1D6543"/>
</g>
<mask id="mask32_7077_15533" style="mask-type:luminance" maskUnits="userSpaceOnUse" x="4907" y="284" width="569" height="514">
<path d="M4907.44 531.607L5314.19 284.324L5475.89 550.295L5069.14 797.578L4907.44 531.607Z" fill="white"/>
</mask>
<g mask="url(#mask32_7077_15533)">
<path d="M5059.29 627.029C5097.07 604.062 5109.11 554.626 5086.14 516.839C5063.17 479.054 5013.74 466.977 4975.95 489.95C4938.17 512.923 4926.13 562.354 4949.1 600.139C4972.07 637.924 5021.51 649.995 5059.29 627.029ZM4984.88 504.638C5014.57 486.587 5053.41 496.064 5071.47 525.76C5089.52 555.457 5080.06 594.303 5050.37 612.352C5020.68 630.402 4981.83 620.926 4963.78 591.229C4945.73 561.532 4955.19 522.687 4984.88 504.638Z" fill="#1D6543"/>
<path d="M5329 463.07C5366.79 440.098 5378.84 390.661 5355.86 352.865C5332.88 315.068 5283.45 303.019 5245.66 325.993C5207.88 348.965 5195.84 398.396 5218.81 436.181C5241.78 473.968 5291.22 486.037 5329 463.07ZM5254.59 340.68C5284.28 322.631 5323.12 332.106 5341.18 361.802C5359.23 391.499 5349.77 430.344 5320.08 448.393C5290.39 466.444 5251.55 456.968 5233.49 427.271C5215.44 397.576 5224.9 358.73 5254.59 340.68Z" fill="#1D6543"/>
<path d="M5272.87 673.734C5386.67 604.548 5422.21 462.214 5353.81 349.704C5351.35 345.648 5346.07 344.361 5342.01 346.827C5337.96 349.291 5336.67 354.57 5339.14 358.624C5402.54 462.906 5369.52 594.872 5263.96 659.05C5158.39 723.228 5023.33 689.156 4959.93 584.875C4957.46 580.819 4952.19 579.531 4948.13 581.997C4944.08 584.462 4942.79 589.74 4945.26 593.795C5013.57 706.165 5160.53 742.026 5272.87 673.734Z" fill="#1D6543"/>
<path d="M5202.35 558.538C5247.02 531.379 5261.26 472.939 5234.1 428.255C5231.63 424.199 5226.35 422.912 5222.3 425.377C5218.24 427.841 5216.96 433.12 5219.42 437.176C5241.66 473.759 5230 521.609 5193.43 543.845C5156.85 566.081 5109.01 554.409 5086.77 517.825C5084.3 513.769 5079.02 512.481 5074.97 514.947C5070.91 517.412 5069.63 522.69 5072.09 526.745C5099.26 571.429 5157.68 585.69 5202.35 558.538Z" fill="#1D6543"/>
<path d="M5230.34 596.907C5274.5 570.062 5301.57 523.146 5302.75 471.397L5302.78 468.792C5302.82 464.051 5299.01 460.168 5294.26 460.133C5289.53 460.085 5285.63 463.905 5285.6 468.658L5285.56 471.015C5284.52 516.876 5260.54 558.45 5221.41 582.238C5182.28 606.025 5129.97 608.075 5088.3 585.503C5084.13 583.251 5078.91 584.809 5076.66 588.967C5074.39 593.138 5075.94 598.35 5080.13 600.613C5127.14 626.072 5184.72 624.647 5230.34 596.907Z" fill="#1D6543"/>
<path d="M5256.76 640.348C5325.43 598.601 5362.72 520.17 5351.75 440.523C5351.11 435.815 5346.78 432.538 5342.08 433.182C5337.35 433.837 5334.09 438.169 5334.74 442.86C5344.76 515.716 5310.66 587.478 5247.85 625.664C5185.04 663.85 5107.28 661.108 5047.52 620.031C5043.61 617.341 5038.27 618.323 5035.57 622.242C5032.89 626.148 5033.88 631.497 5037.79 634.177C5103.11 679.088 5189.06 681.506 5256.76 640.348Z" fill="#1D6543"/>
</g>
<mask id="mask33_7077_15533" style="mask-type:luminance" maskUnits="userSpaceOnUse" x="5175" y="-122" width="566" height="493">
<path d="M5600.86 370.517L5175.71 156.43L5315.7 -121.579L5740.86 92.5087L5600.86 370.517Z" fill="white"/>
</mask>
<g mask="url(#mask33_7077_15533)">
<path d="M5601.4 191.177C5561.91 171.293 5513.59 187.254 5493.71 226.75C5473.82 266.245 5489.75 314.571 5529.25 334.46C5568.74 354.349 5617.05 338.384 5636.94 298.888C5656.82 259.392 5640.88 211.06 5601.4 191.177ZM5536.98 319.107C5505.94 303.481 5493.41 265.514 5509.04 234.472C5524.67 203.432 5562.64 190.891 5593.67 206.518C5624.7 222.145 5637.23 260.113 5621.6 291.153C5605.97 322.193 5568.01 334.735 5536.98 319.107Z" fill="#1D6543"/>
<path d="M5319.48 49.2351C5279.98 29.346 5231.67 45.3056 5211.77 84.8129C5191.88 124.32 5207.83 172.628 5247.33 192.517C5286.83 212.406 5335.13 196.441 5355.02 156.945C5374.91 117.449 5358.97 69.1188 5319.48 49.2351ZM5255.06 177.166C5224.03 161.538 5211.5 123.571 5227.13 92.5296C5242.76 61.4896 5280.72 48.9492 5311.76 64.5756C5342.79 80.2032 5355.32 118.17 5339.69 149.21C5324.06 180.252 5286.1 192.792 5255.06 177.166Z" fill="#1D6543"/>
<path d="M5527.9 -14.7103C5408.95 -74.6089 5269.39 -29.3879 5210.17 88.2145C5208.04 92.4538 5209.74 97.6116 5213.98 99.7458C5218.21 101.88 5223.37 100.176 5225.51 95.9367C5280.39 -13.0636 5409.82 -54.9379 5520.17 0.624822C5630.51 56.1877 5673.13 188.801 5618.24 297.803C5616.11 302.042 5617.81 307.2 5622.05 309.334C5626.28 311.468 5631.44 309.764 5633.58 305.525C5692.72 188.069 5645.32 44.4147 5527.9 -14.7103Z" fill="#1D6543"/>
<path d="M5467.54 106.108C5420.84 82.5942 5363.73 101.46 5340.21 148.167C5338.08 152.406 5339.78 157.565 5344.02 159.699C5348.25 161.834 5353.41 160.13 5355.55 155.89C5374.8 117.65 5421.57 102.203 5459.8 121.454C5498.03 140.706 5513.46 187.473 5494.21 225.713C5492.07 229.953 5493.78 235.112 5498.01 237.246C5502.25 239.379 5507.41 237.675 5509.55 233.437C5533.06 186.729 5514.22 129.616 5467.54 106.108Z" fill="#1D6543"/>
<path d="M5485.25 62.0411C5439.1 38.7983 5384.97 40.6825 5340.44 67.0852L5338.21 68.4381C5334.17 70.9137 5332.9 76.2047 5335.39 80.2538C5337.85 84.2932 5343.15 85.5699 5347.2 83.0832L5349.22 81.8649C5388.67 58.4635 5436.64 56.7926 5477.54 77.387C5518.44 97.9823 5547.88 141.274 5550.79 188.57C5551.1 193.303 5555.18 196.908 5559.9 196.613C5564.64 196.328 5568.24 192.25 5567.94 187.504C5564.64 134.138 5532.95 86.0569 5485.25 62.0411Z" fill="#1D6543"/>
<path d="M5508.12 16.6292C5436.35 -19.5132 5350.07 -9.60913 5288.31 41.8664C5284.66 44.9052 5284.17 50.3109 5287.21 53.9631C5290.27 57.6268 5295.67 58.0963 5299.31 55.0631C5355.8 7.98081 5434.73 -1.09557 5500.39 31.9644C5566.04 65.0248 5604.89 132.44 5601.69 204.884C5601.48 209.629 5605.14 213.636 5609.9 213.851C5614.63 214.055 5618.64 210.384 5618.85 205.65C5622.35 126.458 5578.89 52.2634 5508.12 16.6292Z" fill="#1D6543"/>
</g>
<mask id="mask34_7077_15533" style="mask-type:luminance" maskUnits="userSpaceOnUse" x="4517" y="-122" width="567" height="493">
<path d="M4943.05 370.654L4517.89 156.566L4657.89 -121.442L5083.04 92.6454L4943.05 370.654Z" fill="white"/>
</mask>
<g mask="url(#mask34_7077_15533)">
<path d="M4943.58 191.314C4904.1 171.43 4855.78 187.39 4835.89 226.886C4816 266.381 4831.94 314.706 4871.43 334.595C4910.93 354.484 4959.24 338.52 4979.12 299.023C4999.01 259.527 4983.07 211.197 4943.58 191.314ZM4879.16 319.244C4848.13 303.616 4835.6 265.649 4851.23 234.608C4866.86 203.568 4904.83 191.028 4935.86 206.654C4966.89 222.28 4979.42 260.249 4963.79 291.289C4948.16 322.33 4910.2 334.87 4879.16 319.244Z" fill="#1D6543"/>
<path d="M4661.68 49.3717C4622.18 29.4828 4573.86 45.4424 4553.97 84.9494C4534.08 124.457 4550.03 172.764 4589.53 192.653C4629.03 212.542 4677.33 196.578 4697.22 157.081C4717.11 117.585 4701.16 69.2551 4661.68 49.3717ZM4597.26 177.302C4566.22 161.676 4553.69 123.707 4569.32 92.6674C4584.95 61.6261 4622.92 49.0859 4653.95 64.7122C4684.98 80.3397 4697.52 118.307 4681.89 149.348C4666.26 180.388 4628.29 192.928 4597.26 177.302Z" fill="#1D6543"/>
<path d="M4870.1 -14.5737C4751.15 -74.4721 4611.58 -29.2511 4552.37 88.3503C4550.23 92.5895 4551.93 97.7487 4556.17 99.8829C4560.41 102.017 4565.57 100.313 4567.7 96.0738C4622.59 -12.927 4752.02 -54.8012 4862.36 0.761649C4972.7 56.3245 5015.32 188.938 4960.44 297.94C4958.3 302.178 4960 307.337 4964.24 309.471C4968.48 311.605 4973.64 309.901 4975.77 305.662C5034.92 188.206 4987.51 44.5514 4870.1 -14.5737Z" fill="#1D6543"/>
<path d="M4809.73 106.244C4763.03 82.7309 4705.92 101.597 4682.4 148.304C4680.26 152.543 4681.97 157.702 4686.2 159.836C4690.44 161.97 4695.6 160.266 4697.73 156.027C4716.99 117.787 4763.75 102.34 4801.98 121.59C4840.22 140.842 4855.65 187.61 4836.4 225.85C4834.26 230.089 4835.96 235.249 4840.2 237.383C4844.44 239.517 4849.6 237.813 4851.73 233.574C4875.25 186.867 4856.41 129.752 4809.73 106.244Z" fill="#1D6543"/>
<path d="M4827.45 62.162C4781.29 38.9194 4727.16 40.8037 4682.64 67.2061L4680.41 68.559C4676.37 71.0346 4675.09 76.3256 4677.58 80.3761C4680.04 84.4141 4685.35 85.6921 4689.4 83.2041L4691.41 81.9858C4730.87 58.5846 4778.84 56.9136 4819.74 77.5079C4860.63 98.1031 4890.08 141.395 4892.99 188.691C4893.29 193.424 4897.38 197.029 4902.1 196.733C4906.83 196.449 4910.43 192.371 4910.14 187.626C4906.84 134.259 4875.14 86.1778 4827.45 62.162Z" fill="#1D6543"/>
<path d="M4850.31 16.7659C4778.54 -19.3764 4692.26 -9.47247 4630.5 42.0031C4626.85 45.0419 4626.36 50.4477 4629.4 54.0999C4632.46 57.7636 4637.86 58.2331 4641.49 55.1999C4697.99 8.11748 4776.92 -0.958771 4842.57 32.1011C4908.23 65.1613 4947.08 132.577 4943.88 205.021C4943.67 209.765 4947.33 213.773 4952.09 213.988C4956.82 214.192 4960.83 210.52 4961.04 205.787C4964.54 126.595 4921.08 52.4002 4850.31 16.7659Z" fill="#1D6543"/>
</g>
<mask id="mask35_7077_15533" style="mask-type:luminance" maskUnits="userSpaceOnUse" x="5880" y="690" width="570" height="514">
<path d="M5880.77 956.015L6287.52 1203.3L6449.21 937.332L6042.47 690.047L5880.77 956.015Z" fill="white"/>
</mask>
<g mask="url(#mask35_7077_15533)">
<path d="M6032.63 860.607C6070.4 883.574 6082.46 933.01 6059.48 970.795C6036.52 1008.58 5987.09 1020.66 5949.29 997.685C5911.5 974.713 5899.47 925.282 5922.44 887.497C5945.42 849.71 5994.84 837.641 6032.63 860.607ZM5958.22 982.998C5987.91 1001.05 6026.76 991.572 6044.81 961.876C6062.87 932.179 6053.4 893.333 6023.71 875.284C5994.01 857.234 5955.17 866.71 5937.12 896.406C5919.07 926.102 5928.53 964.948 5958.22 982.998Z" fill="#1D6543"/>
<path d="M6302.33 1024.57C6340.12 1047.55 6352.16 1096.98 6329.18 1134.78C6306.22 1172.58 6256.79 1184.62 6218.99 1161.65C6181.21 1138.68 6169.18 1089.25 6192.14 1051.46C6215.12 1013.68 6264.55 1001.61 6302.33 1024.57ZM6227.93 1146.96C6257.61 1165.01 6296.46 1155.54 6314.52 1125.84C6332.57 1096.14 6323.11 1057.3 6293.41 1039.25C6263.71 1021.2 6224.88 1030.67 6206.82 1060.37C6188.77 1090.07 6198.23 1128.92 6227.91 1146.97L6227.93 1146.96Z" fill="#1D6543"/>
<path d="M6246.2 813.916C6360 883.102 6395.55 1025.44 6327.14 1137.95C6324.69 1142 6319.4 1143.29 6315.35 1140.82C6311.3 1138.36 6310 1133.08 6312.47 1129.02C6375.88 1024.74 6342.85 892.777 6237.29 828.6C6131.72 764.422 5996.66 798.494 5933.26 902.774C5930.79 906.829 5925.52 908.117 5921.47 905.653C5917.42 903.188 5916.12 897.909 5918.59 893.853C5986.91 781.484 6133.89 745.63 6246.22 813.923L6246.2 813.916Z" fill="#1D6543"/>
<path d="M6175.68 929.117C6220.36 956.277 6234.6 1014.72 6207.43 1059.4C6204.97 1063.46 6199.69 1064.74 6195.64 1062.28C6191.58 1059.81 6190.29 1054.54 6192.76 1050.48C6215.01 1013.9 6203.34 966.048 6166.77 943.811C6130.2 921.575 6082.35 933.248 6060.11 969.832C6057.64 973.888 6052.36 975.174 6048.31 972.709C6044.26 970.245 6042.97 964.967 6045.44 960.91C6072.59 916.227 6131.04 901.971 6175.7 929.124L6175.68 929.117Z" fill="#1D6543"/>
<path d="M6203.68 890.73C6247.85 917.577 6274.91 964.491 6276.09 1016.24L6276.11 1018.85C6276.16 1023.59 6272.34 1027.47 6267.59 1027.5C6262.86 1027.55 6258.98 1023.73 6258.93 1018.98L6258.91 1016.62C6257.85 970.76 6233.87 929.188 6194.74 905.4C6155.63 881.612 6103.31 879.562 6061.64 902.135C6057.46 904.387 6052.25 902.829 6050 898.67C6047.74 894.5 6049.28 889.287 6053.47 887.025C6100.48 861.566 6158.04 862.984 6203.67 890.724L6203.68 890.73Z" fill="#1D6543"/>
<path d="M6230.09 847.299C6298.76 889.046 6336.05 967.477 6325.08 1047.12C6324.45 1051.83 6320.12 1055.11 6315.4 1054.46C6310.68 1053.81 6307.42 1049.48 6308.07 1044.79C6318.09 971.93 6284 900.168 6221.18 861.983C6158.37 823.797 6080.61 826.539 6020.84 867.616C6016.93 870.306 6011.6 869.324 6008.9 865.404C6006.22 861.497 6007.2 856.15 6011.12 853.469C6076.43 808.559 6162.4 806.146 6230.1 847.306L6230.09 847.299Z" fill="#1D6543"/>
</g>
<mask id="mask36_7077_15533" style="mask-type:luminance" maskUnits="userSpaceOnUse" x="4907" y="1095" width="569" height="515">
<path d="M4907.44 1343.24L5314.19 1095.95L5475.89 1361.92L5069.14 1609.21L4907.44 1343.24Z" fill="white"/>
</mask>
<g mask="url(#mask36_7077_15533)">
<path d="M5329 1274.7C5366.79 1251.73 5378.83 1202.29 5355.86 1164.49C5332.88 1126.7 5283.45 1114.65 5245.66 1137.62C5207.88 1160.59 5195.84 1210.02 5218.81 1247.81C5241.78 1285.6 5291.22 1297.67 5329 1274.7ZM5254.59 1152.31C5284.28 1134.26 5323.13 1143.73 5341.18 1173.43C5359.23 1203.13 5349.77 1241.97 5320.08 1260.02C5290.39 1278.07 5251.55 1268.6 5233.49 1238.9C5215.44 1209.2 5224.9 1170.36 5254.59 1152.31Z" fill="#1D6543"/>
</g>
<mask id="mask37_7077_15533" style="mask-type:luminance" maskUnits="userSpaceOnUse" x="5175" y="690" width="566" height="493">
<path d="M5600.86 1182.13L5175.71 968.043L5315.7 690.034L5740.86 904.122L5600.86 1182.13Z" fill="white"/>
</mask>
<g mask="url(#mask37_7077_15533)">
<path d="M5601.4 1002.77C5561.91 982.887 5513.59 998.847 5493.7 1038.34C5473.82 1077.84 5489.75 1126.16 5529.25 1146.05C5568.74 1165.94 5617.05 1149.98 5636.94 1110.48C5656.82 1070.98 5640.88 1022.65 5601.4 1002.77ZM5536.98 1130.7C5505.94 1115.07 5493.41 1077.11 5509.04 1046.07C5524.67 1015.03 5562.64 1002.48 5593.67 1018.11C5624.7 1033.74 5637.23 1071.71 5621.6 1102.75C5605.97 1133.79 5568.01 1146.33 5536.98 1130.7Z" fill="#1D6543"/>
<path d="M5319.48 860.829C5279.98 840.94 5231.67 856.899 5211.77 896.406C5191.88 935.914 5207.83 984.221 5247.33 1004.11C5286.83 1024 5335.13 1008.03 5355.02 968.538C5374.91 929.042 5358.97 880.712 5319.48 860.829ZM5255.06 988.759C5224.03 973.131 5211.5 935.164 5227.13 904.124C5242.76 873.083 5280.72 860.543 5311.76 876.169C5342.79 891.797 5355.32 929.764 5339.69 960.804C5324.06 991.845 5286.1 1004.39 5255.06 988.759Z" fill="#1D6543"/>
<path d="M5527.9 796.883C5408.95 736.985 5269.39 782.206 5210.17 899.808C5208.04 904.048 5209.74 909.205 5213.98 911.34C5218.21 913.474 5223.37 911.77 5225.51 907.531C5280.39 798.53 5409.82 756.656 5520.17 812.218C5630.51 867.782 5673.13 1000.4 5618.24 1109.4C5616.11 1113.64 5617.81 1118.8 5622.05 1120.93C5626.28 1123.06 5631.44 1121.36 5633.58 1117.12C5692.72 999.663 5645.32 856.009 5527.9 796.883Z" fill="#1D6543"/>
<path d="M5467.53 917.701C5420.84 894.188 5363.72 913.054 5340.2 959.761C5338.07 964 5339.77 969.159 5344.01 971.293C5348.25 973.427 5353.4 971.723 5355.54 967.484C5374.79 929.244 5421.56 913.797 5459.79 933.047C5498.02 952.299 5513.46 999.067 5494.2 1037.31C5492.07 1041.55 5493.77 1046.71 5498.01 1048.84C5502.24 1050.97 5507.4 1049.27 5509.54 1045.03C5533.06 998.323 5514.22 941.209 5467.53 917.701Z" fill="#1D6543"/>
<path d="M5485.25 873.635C5439.1 850.392 5384.97 852.276 5340.44 878.679L5338.21 880.032C5334.17 882.507 5332.9 887.798 5335.39 891.848C5337.85 895.887 5343.15 897.163 5347.2 894.677L5349.22 893.459C5388.67 870.057 5436.64 868.387 5477.54 888.981C5518.44 909.576 5547.88 952.867 5550.79 1000.16C5551.1 1004.9 5555.18 1008.5 5559.9 1008.21C5564.64 1007.92 5568.24 1003.84 5567.94 999.098C5564.64 945.732 5532.95 897.651 5485.25 873.635Z" fill="#1D6543"/>
<path d="M5508.12 828.223C5436.35 792.081 5350.07 801.984 5288.31 853.46C5284.66 856.499 5284.17 861.905 5287.21 865.557C5290.27 869.221 5295.67 869.69 5299.31 866.658C5355.8 819.575 5434.73 810.499 5500.39 843.558C5566.04 876.618 5604.89 944.035 5601.69 1016.48C5601.48 1021.22 5605.14 1025.23 5609.9 1025.45C5614.63 1025.65 5618.64 1021.98 5618.85 1017.24C5622.35 938.052 5578.89 863.858 5508.12 828.223Z" fill="#1D6543"/>
</g>
<mask id="mask38_7077_15533" style="mask-type:luminance" maskUnits="userSpaceOnUse" x="4517" y="690" width="567" height="493">
<path d="M4943.06 1182.29L4517.9 968.199L4657.89 690.191L5083.05 904.278L4943.06 1182.29Z" fill="white"/>
</mask>
<g mask="url(#mask38_7077_15533)">
<path d="M4943.6 1002.94C4904.11 983.059 4855.8 999.018 4835.91 1038.51C4816.02 1078.01 4831.95 1126.34 4871.45 1146.22C4910.95 1166.11 4959.25 1150.15 4979.14 1110.65C4999.03 1071.16 4983.09 1022.83 4943.6 1002.94ZM4879.18 1130.87C4848.15 1115.25 4835.61 1077.28 4851.25 1046.24C4866.88 1015.2 4904.84 1002.66 4935.87 1018.28C4966.91 1033.91 4979.44 1071.88 4963.81 1102.92C4948.18 1133.96 4910.21 1146.5 4879.18 1130.87Z" fill="#1D6543"/>
<path d="M4661.68 861.001C4622.19 841.112 4573.87 857.071 4553.98 896.578C4534.08 936.086 4550.04 984.393 4589.54 1004.28C4629.03 1024.17 4677.34 1008.21 4697.22 968.71C4717.11 929.214 4701.17 880.884 4661.68 861.001ZM4597.27 988.931C4566.23 973.305 4553.7 935.336 4569.33 904.296C4584.96 873.255 4622.93 860.715 4653.96 876.341C4684.99 891.969 4697.52 929.936 4681.89 960.977C4666.26 992.017 4628.3 1004.56 4597.27 988.931Z" fill="#1D6543"/>
<path d="M4870.11 797.055C4751.16 737.157 4611.6 782.378 4552.38 899.98C4550.24 904.219 4551.95 909.379 4556.18 911.511C4560.42 913.646 4565.58 911.942 4567.71 907.702C4622.6 798.702 4752.03 756.828 4862.37 812.391C4972.72 867.954 5015.34 1000.57 4960.45 1109.57C4958.31 1113.81 4960.02 1118.97 4964.25 1121.1C4968.49 1123.23 4973.65 1121.53 4975.78 1117.29C5034.93 999.836 4987.53 856.181 4870.11 797.055Z" fill="#1D6543"/>
<path d="M4809.73 917.873C4763.04 894.36 4705.92 913.226 4682.4 959.932C4680.27 964.172 4681.97 969.331 4686.21 971.465C4690.45 973.599 4695.61 971.895 4697.74 967.656C4717 929.416 4763.76 913.968 4801.99 933.219C4840.22 952.471 4855.66 999.239 4836.4 1037.48C4834.27 1041.72 4835.97 1046.88 4840.21 1049.01C4844.45 1051.15 4849.61 1049.44 4851.74 1045.2C4875.26 998.496 4856.42 941.381 4809.73 917.873Z" fill="#1D6543"/>
<path d="M4827.46 873.807C4781.3 850.564 4727.17 852.448 4682.65 878.851L4680.42 880.204C4676.38 882.679 4675.1 887.97 4677.59 892.021C4680.05 896.059 4685.35 897.337 4689.4 894.849L4691.42 893.63C4730.88 870.229 4778.84 868.559 4819.74 889.152C4860.64 909.748 4890.08 953.039 4893 1000.34C4893.3 1005.07 4897.39 1008.67 4902.1 1008.38C4906.84 1008.09 4910.44 1004.02 4910.15 999.271C4906.84 945.904 4875.15 897.822 4827.46 873.807Z" fill="#1D6543"/>
<path d="M4850.32 828.395C4778.54 792.253 4692.27 802.156 4630.51 853.632C4626.86 856.671 4626.37 862.077 4629.41 865.729C4632.47 869.393 4637.87 869.862 4641.5 866.828C4698 819.746 4776.93 810.669 4842.58 843.73C4908.24 876.79 4947.09 944.206 4943.89 1016.65C4943.68 1021.39 4947.34 1025.4 4952.09 1025.62C4956.83 1025.82 4960.84 1022.15 4961.04 1017.42C4964.55 938.223 4921.09 864.029 4850.32 828.395Z" fill="#1D6543"/>
</g>
<mask id="mask39_7077_15533" style="mask-type:luminance" maskUnits="userSpaceOnUse" x="4232" y="295" width="566" height="493">
<path d="M4657.6 295.455L4232.45 509.543L4372.44 787.552L4797.59 573.464L4657.6 295.455Z" fill="white"/>
</mask>
<g mask="url(#mask39_7077_15533)">
<path d="M4658.14 474.814C4618.66 494.698 4570.34 478.737 4550.45 439.241C4530.56 399.746 4546.49 351.42 4585.99 331.531C4625.49 311.642 4673.79 327.607 4693.68 367.103C4713.57 406.599 4697.63 454.931 4658.14 474.814ZM4593.72 346.884C4562.69 362.51 4550.16 400.477 4565.79 431.518C4581.42 462.558 4619.38 475.1 4650.42 459.472C4681.45 443.846 4693.98 405.878 4678.35 374.838C4662.72 343.798 4624.76 331.256 4593.72 346.884Z" fill="#1D6543"/>
<path d="M4584.65 680.699C4465.7 740.598 4326.14 695.378 4266.92 577.776C4264.79 573.536 4266.49 568.377 4270.73 566.243C4274.96 564.109 4280.12 565.813 4282.26 570.052C4337.15 679.053 4466.57 720.927 4576.92 665.364C4687.26 609.802 4729.88 477.187 4674.99 368.187C4672.86 363.948 4674.56 358.789 4678.8 356.655C4683.04 354.52 4688.19 356.224 4690.33 360.464C4749.47 477.92 4702.07 621.575 4584.65 680.699Z" fill="#1D6543"/>
<path d="M4524.28 559.89C4477.58 583.403 4420.47 564.537 4396.95 517.831C4394.81 513.591 4396.52 508.432 4400.75 506.298C4404.99 504.164 4410.15 505.868 4412.29 510.107C4431.54 548.347 4478.31 563.795 4516.54 544.544C4554.77 525.292 4570.2 478.524 4550.95 440.284C4548.81 436.045 4550.52 430.886 4554.75 428.751C4558.99 426.619 4564.15 428.323 4566.28 432.56C4589.8 479.268 4570.96 536.382 4524.28 559.89Z" fill="#1D6543"/>
<path d="M4542 603.971C4495.84 627.213 4441.71 625.328 4397.19 598.927L4394.96 597.574C4390.92 595.097 4389.64 589.806 4392.13 585.757C4394.59 581.719 4399.9 580.441 4403.95 582.929L4405.96 584.148C4445.42 607.549 4493.39 609.219 4534.28 588.624C4575.18 568.03 4604.63 524.737 4607.54 477.443C4607.84 472.708 4611.93 469.103 4616.65 469.4C4621.38 469.684 4624.98 473.761 4624.69 478.507C4621.39 531.873 4589.69 579.956 4542 603.971Z" fill="#1D6543"/>
<path d="M4564.86 649.363C4493.09 685.505 4406.81 675.601 4345.05 624.126C4341.4 621.087 4340.91 615.682 4343.95 612.03C4347.01 608.365 4352.41 607.896 4356.04 610.929C4412.54 658.012 4491.47 667.088 4557.13 634.028C4622.78 600.967 4661.63 533.552 4658.43 461.108C4658.22 456.364 4661.88 452.356 4666.64 452.141C4671.37 451.937 4675.38 455.609 4675.59 460.342C4679.09 539.534 4635.63 613.73 4564.86 649.363Z" fill="#1D6543"/>
</g>
<mask id="mask40_7077_15533" style="mask-type:luminance" maskUnits="userSpaceOnUse" x="4232" y="1107" width="566" height="493">
<path d="M4657.6 1107.08L4232.45 1321.17L4372.44 1599.18L4797.59 1385.09L4657.6 1107.08Z" fill="white"/>
</mask>
<g mask="url(#mask40_7077_15533)">
<path d="M4658.14 1286.44C4618.66 1306.32 4570.34 1290.37 4550.45 1250.87C4530.56 1211.37 4546.49 1163.05 4585.99 1143.16C4625.49 1123.27 4673.79 1139.24 4693.68 1178.73C4713.57 1218.23 4697.63 1266.56 4658.14 1286.44ZM4593.72 1158.51C4562.69 1174.14 4550.16 1212.11 4565.79 1243.15C4581.42 1274.19 4619.38 1286.73 4650.42 1271.1C4681.45 1255.47 4693.98 1217.51 4678.35 1186.47C4662.72 1155.43 4624.76 1142.89 4593.72 1158.51Z" fill="#1D6543"/>
</g>
</g>
</g>
</g>
</g>
</g>
<defs>
<clipPath id="clip0_7077_15533">
<rect width="6326.62" height="1132" fill="white"/>
</clipPath>
<clipPath id="clip1_7077_15533">
<rect width="6326.62" height="3238" fill="white"/>
</clipPath>
<clipPath id="clip2_7077_15533">
<rect width="6326.62" height="3233.61" fill="white" transform="translate(0 4.39453)"/>
</clipPath>
<clipPath id="clip3_7077_15533">
<rect width="2636.51" height="2483.87" fill="white" transform="translate(-791.438 -78.2266)"/>
</clipPath>
<clipPath id="clip4_7077_15533">
<rect width="2636.51" height="2483.87" fill="white" transform="translate(1845.07 -78.2266)"/>
</clipPath>
<clipPath id="clip5_7077_15533">
<rect width="2636.51" height="2483.87" fill="white" transform="translate(4481.55 -78.2266)"/>
</clipPath>
</defs>
</svg>
